%TF.GenerationSoftware,KiCad,Pcbnew,10.0.0*%
%TF.CreationDate,2026-07-08T19:37:32+02:00*%
%TF.ProjectId,STARDRIVE_SHIELD_V1_0,53544152-4452-4495-9645-5f534849454c,1.0*%
%TF.SameCoordinates,Original*%
%TF.FileFunction,AssemblyDrawing,Bot*%
%FSLAX46Y46*%
G04 Gerber Fmt 4.6, Leading zero omitted, Abs format (unit mm)*
G04 Created by KiCad (PCBNEW 10.0.0) date 2026-07-08 19:37:32*
%MOMM*%
%LPD*%
G01*
G04 APERTURE LIST*
%ADD10C,0.100000*%
%ADD11C,0.150000*%
%ADD12C,0.300000*%
%ADD13C,0.400000*%
G04 APERTURE END LIST*
D10*
X178416667Y-176916667D02*
X178416667Y-198083333D01*
X199583333Y-198083333D01*
X199583333Y-176916667D01*
X178416667Y-176916667D01*
D11*
X177000000Y-177000000D02*
X285002000Y-177000000D01*
X285002000Y-198000000D01*
X177000000Y-198000000D01*
X177000000Y-177000000D01*
X10000000Y-10000000D02*
X287002200Y-10000000D01*
X287002200Y-200007200D01*
X10000000Y-200007200D01*
X10000000Y-10000000D01*
X12000000Y-12000000D02*
X285002200Y-12000000D01*
X285002200Y-198007200D01*
X12000000Y-198007200D01*
X12000000Y-12000000D01*
X60000000Y-12000000D02*
X60000000Y-10000000D01*
X110000000Y-12000000D02*
X110000000Y-10000000D01*
X160000000Y-12000000D02*
X160000000Y-10000000D01*
X210000000Y-12000000D02*
X210000000Y-10000000D01*
X260000000Y-12000000D02*
X260000000Y-10000000D01*
X36089160Y-11593604D02*
X35346303Y-11593604D01*
X35717731Y-11593604D02*
X35717731Y-10293604D01*
X35717731Y-10293604D02*
X35593922Y-10479319D01*
X35593922Y-10479319D02*
X35470112Y-10603128D01*
X35470112Y-10603128D02*
X35346303Y-10665033D01*
X85346303Y-10417414D02*
X85408207Y-10355509D01*
X85408207Y-10355509D02*
X85532017Y-10293604D01*
X85532017Y-10293604D02*
X85841541Y-10293604D01*
X85841541Y-10293604D02*
X85965350Y-10355509D01*
X85965350Y-10355509D02*
X86027255Y-10417414D01*
X86027255Y-10417414D02*
X86089160Y-10541223D01*
X86089160Y-10541223D02*
X86089160Y-10665033D01*
X86089160Y-10665033D02*
X86027255Y-10850747D01*
X86027255Y-10850747D02*
X85284398Y-11593604D01*
X85284398Y-11593604D02*
X86089160Y-11593604D01*
X135284398Y-10293604D02*
X136089160Y-10293604D01*
X136089160Y-10293604D02*
X135655826Y-10788842D01*
X135655826Y-10788842D02*
X135841541Y-10788842D01*
X135841541Y-10788842D02*
X135965350Y-10850747D01*
X135965350Y-10850747D02*
X136027255Y-10912652D01*
X136027255Y-10912652D02*
X136089160Y-11036461D01*
X136089160Y-11036461D02*
X136089160Y-11345985D01*
X136089160Y-11345985D02*
X136027255Y-11469795D01*
X136027255Y-11469795D02*
X135965350Y-11531700D01*
X135965350Y-11531700D02*
X135841541Y-11593604D01*
X135841541Y-11593604D02*
X135470112Y-11593604D01*
X135470112Y-11593604D02*
X135346303Y-11531700D01*
X135346303Y-11531700D02*
X135284398Y-11469795D01*
X185965350Y-10726938D02*
X185965350Y-11593604D01*
X185655826Y-10231700D02*
X185346303Y-11160271D01*
X185346303Y-11160271D02*
X186151064Y-11160271D01*
X236027255Y-10293604D02*
X235408207Y-10293604D01*
X235408207Y-10293604D02*
X235346303Y-10912652D01*
X235346303Y-10912652D02*
X235408207Y-10850747D01*
X235408207Y-10850747D02*
X235532017Y-10788842D01*
X235532017Y-10788842D02*
X235841541Y-10788842D01*
X235841541Y-10788842D02*
X235965350Y-10850747D01*
X235965350Y-10850747D02*
X236027255Y-10912652D01*
X236027255Y-10912652D02*
X236089160Y-11036461D01*
X236089160Y-11036461D02*
X236089160Y-11345985D01*
X236089160Y-11345985D02*
X236027255Y-11469795D01*
X236027255Y-11469795D02*
X235965350Y-11531700D01*
X235965350Y-11531700D02*
X235841541Y-11593604D01*
X235841541Y-11593604D02*
X235532017Y-11593604D01*
X235532017Y-11593604D02*
X235408207Y-11531700D01*
X235408207Y-11531700D02*
X235346303Y-11469795D01*
X285965350Y-10293604D02*
X285717731Y-10293604D01*
X285717731Y-10293604D02*
X285593922Y-10355509D01*
X285593922Y-10355509D02*
X285532017Y-10417414D01*
X285532017Y-10417414D02*
X285408207Y-10603128D01*
X285408207Y-10603128D02*
X285346303Y-10850747D01*
X285346303Y-10850747D02*
X285346303Y-11345985D01*
X285346303Y-11345985D02*
X285408207Y-11469795D01*
X285408207Y-11469795D02*
X285470112Y-11531700D01*
X285470112Y-11531700D02*
X285593922Y-11593604D01*
X285593922Y-11593604D02*
X285841541Y-11593604D01*
X285841541Y-11593604D02*
X285965350Y-11531700D01*
X285965350Y-11531700D02*
X286027255Y-11469795D01*
X286027255Y-11469795D02*
X286089160Y-11345985D01*
X286089160Y-11345985D02*
X286089160Y-11036461D01*
X286089160Y-11036461D02*
X286027255Y-10912652D01*
X286027255Y-10912652D02*
X285965350Y-10850747D01*
X285965350Y-10850747D02*
X285841541Y-10788842D01*
X285841541Y-10788842D02*
X285593922Y-10788842D01*
X285593922Y-10788842D02*
X285470112Y-10850747D01*
X285470112Y-10850747D02*
X285408207Y-10912652D01*
X285408207Y-10912652D02*
X285346303Y-11036461D01*
X60000000Y-198007200D02*
X60000000Y-200007200D01*
X110000000Y-198007200D02*
X110000000Y-200007200D01*
X160000000Y-198007200D02*
X160000000Y-200007200D01*
X210000000Y-198007200D02*
X210000000Y-200007200D01*
X260000000Y-198007200D02*
X260000000Y-200007200D01*
X36089160Y-199600804D02*
X35346303Y-199600804D01*
X35717731Y-199600804D02*
X35717731Y-198300804D01*
X35717731Y-198300804D02*
X35593922Y-198486519D01*
X35593922Y-198486519D02*
X35470112Y-198610328D01*
X35470112Y-198610328D02*
X35346303Y-198672233D01*
X85346303Y-198424614D02*
X85408207Y-198362709D01*
X85408207Y-198362709D02*
X85532017Y-198300804D01*
X85532017Y-198300804D02*
X85841541Y-198300804D01*
X85841541Y-198300804D02*
X85965350Y-198362709D01*
X85965350Y-198362709D02*
X86027255Y-198424614D01*
X86027255Y-198424614D02*
X86089160Y-198548423D01*
X86089160Y-198548423D02*
X86089160Y-198672233D01*
X86089160Y-198672233D02*
X86027255Y-198857947D01*
X86027255Y-198857947D02*
X85284398Y-199600804D01*
X85284398Y-199600804D02*
X86089160Y-199600804D01*
X135284398Y-198300804D02*
X136089160Y-198300804D01*
X136089160Y-198300804D02*
X135655826Y-198796042D01*
X135655826Y-198796042D02*
X135841541Y-198796042D01*
X135841541Y-198796042D02*
X135965350Y-198857947D01*
X135965350Y-198857947D02*
X136027255Y-198919852D01*
X136027255Y-198919852D02*
X136089160Y-199043661D01*
X136089160Y-199043661D02*
X136089160Y-199353185D01*
X136089160Y-199353185D02*
X136027255Y-199476995D01*
X136027255Y-199476995D02*
X135965350Y-199538900D01*
X135965350Y-199538900D02*
X135841541Y-199600804D01*
X135841541Y-199600804D02*
X135470112Y-199600804D01*
X135470112Y-199600804D02*
X135346303Y-199538900D01*
X135346303Y-199538900D02*
X135284398Y-199476995D01*
X185965350Y-198734138D02*
X185965350Y-199600804D01*
X185655826Y-198238900D02*
X185346303Y-199167471D01*
X185346303Y-199167471D02*
X186151064Y-199167471D01*
X236027255Y-198300804D02*
X235408207Y-198300804D01*
X235408207Y-198300804D02*
X235346303Y-198919852D01*
X235346303Y-198919852D02*
X235408207Y-198857947D01*
X235408207Y-198857947D02*
X235532017Y-198796042D01*
X235532017Y-198796042D02*
X235841541Y-198796042D01*
X235841541Y-198796042D02*
X235965350Y-198857947D01*
X235965350Y-198857947D02*
X236027255Y-198919852D01*
X236027255Y-198919852D02*
X236089160Y-199043661D01*
X236089160Y-199043661D02*
X236089160Y-199353185D01*
X236089160Y-199353185D02*
X236027255Y-199476995D01*
X236027255Y-199476995D02*
X235965350Y-199538900D01*
X235965350Y-199538900D02*
X235841541Y-199600804D01*
X235841541Y-199600804D02*
X235532017Y-199600804D01*
X235532017Y-199600804D02*
X235408207Y-199538900D01*
X235408207Y-199538900D02*
X235346303Y-199476995D01*
X285965350Y-198300804D02*
X285717731Y-198300804D01*
X285717731Y-198300804D02*
X285593922Y-198362709D01*
X285593922Y-198362709D02*
X285532017Y-198424614D01*
X285532017Y-198424614D02*
X285408207Y-198610328D01*
X285408207Y-198610328D02*
X285346303Y-198857947D01*
X285346303Y-198857947D02*
X285346303Y-199353185D01*
X285346303Y-199353185D02*
X285408207Y-199476995D01*
X285408207Y-199476995D02*
X285470112Y-199538900D01*
X285470112Y-199538900D02*
X285593922Y-199600804D01*
X285593922Y-199600804D02*
X285841541Y-199600804D01*
X285841541Y-199600804D02*
X285965350Y-199538900D01*
X285965350Y-199538900D02*
X286027255Y-199476995D01*
X286027255Y-199476995D02*
X286089160Y-199353185D01*
X286089160Y-199353185D02*
X286089160Y-199043661D01*
X286089160Y-199043661D02*
X286027255Y-198919852D01*
X286027255Y-198919852D02*
X285965350Y-198857947D01*
X285965350Y-198857947D02*
X285841541Y-198796042D01*
X285841541Y-198796042D02*
X285593922Y-198796042D01*
X285593922Y-198796042D02*
X285470112Y-198857947D01*
X285470112Y-198857947D02*
X285408207Y-198919852D01*
X285408207Y-198919852D02*
X285346303Y-199043661D01*
X10000000Y-60000000D02*
X12000000Y-60000000D01*
X10000000Y-110000000D02*
X12000000Y-110000000D01*
X10000000Y-160000000D02*
X12000000Y-160000000D01*
X10690476Y-35222176D02*
X11309523Y-35222176D01*
X10566666Y-35593604D02*
X10999999Y-34293604D01*
X10999999Y-34293604D02*
X11433333Y-35593604D01*
X11092857Y-84912652D02*
X11278571Y-84974557D01*
X11278571Y-84974557D02*
X11340476Y-85036461D01*
X11340476Y-85036461D02*
X11402380Y-85160271D01*
X11402380Y-85160271D02*
X11402380Y-85345985D01*
X11402380Y-85345985D02*
X11340476Y-85469795D01*
X11340476Y-85469795D02*
X11278571Y-85531700D01*
X11278571Y-85531700D02*
X11154761Y-85593604D01*
X11154761Y-85593604D02*
X10659523Y-85593604D01*
X10659523Y-85593604D02*
X10659523Y-84293604D01*
X10659523Y-84293604D02*
X11092857Y-84293604D01*
X11092857Y-84293604D02*
X11216666Y-84355509D01*
X11216666Y-84355509D02*
X11278571Y-84417414D01*
X11278571Y-84417414D02*
X11340476Y-84541223D01*
X11340476Y-84541223D02*
X11340476Y-84665033D01*
X11340476Y-84665033D02*
X11278571Y-84788842D01*
X11278571Y-84788842D02*
X11216666Y-84850747D01*
X11216666Y-84850747D02*
X11092857Y-84912652D01*
X11092857Y-84912652D02*
X10659523Y-84912652D01*
X11402380Y-135469795D02*
X11340476Y-135531700D01*
X11340476Y-135531700D02*
X11154761Y-135593604D01*
X11154761Y-135593604D02*
X11030952Y-135593604D01*
X11030952Y-135593604D02*
X10845238Y-135531700D01*
X10845238Y-135531700D02*
X10721428Y-135407890D01*
X10721428Y-135407890D02*
X10659523Y-135284080D01*
X10659523Y-135284080D02*
X10597619Y-135036461D01*
X10597619Y-135036461D02*
X10597619Y-134850747D01*
X10597619Y-134850747D02*
X10659523Y-134603128D01*
X10659523Y-134603128D02*
X10721428Y-134479319D01*
X10721428Y-134479319D02*
X10845238Y-134355509D01*
X10845238Y-134355509D02*
X11030952Y-134293604D01*
X11030952Y-134293604D02*
X11154761Y-134293604D01*
X11154761Y-134293604D02*
X11340476Y-134355509D01*
X11340476Y-134355509D02*
X11402380Y-134417414D01*
X10659523Y-185593604D02*
X10659523Y-184293604D01*
X10659523Y-184293604D02*
X10969047Y-184293604D01*
X10969047Y-184293604D02*
X11154761Y-184355509D01*
X11154761Y-184355509D02*
X11278571Y-184479319D01*
X11278571Y-184479319D02*
X11340476Y-184603128D01*
X11340476Y-184603128D02*
X11402380Y-184850747D01*
X11402380Y-184850747D02*
X11402380Y-185036461D01*
X11402380Y-185036461D02*
X11340476Y-185284080D01*
X11340476Y-185284080D02*
X11278571Y-185407890D01*
X11278571Y-185407890D02*
X11154761Y-185531700D01*
X11154761Y-185531700D02*
X10969047Y-185593604D01*
X10969047Y-185593604D02*
X10659523Y-185593604D01*
X287002200Y-60000000D02*
X285002200Y-60000000D01*
X287002200Y-110000000D02*
X285002200Y-110000000D01*
X287002200Y-160000000D02*
X285002200Y-160000000D01*
X285692676Y-35222176D02*
X286311723Y-35222176D01*
X285568866Y-35593604D02*
X286002199Y-34293604D01*
X286002199Y-34293604D02*
X286435533Y-35593604D01*
X286095057Y-84912652D02*
X286280771Y-84974557D01*
X286280771Y-84974557D02*
X286342676Y-85036461D01*
X286342676Y-85036461D02*
X286404580Y-85160271D01*
X286404580Y-85160271D02*
X286404580Y-85345985D01*
X286404580Y-85345985D02*
X286342676Y-85469795D01*
X286342676Y-85469795D02*
X286280771Y-85531700D01*
X286280771Y-85531700D02*
X286156961Y-85593604D01*
X286156961Y-85593604D02*
X285661723Y-85593604D01*
X285661723Y-85593604D02*
X285661723Y-84293604D01*
X285661723Y-84293604D02*
X286095057Y-84293604D01*
X286095057Y-84293604D02*
X286218866Y-84355509D01*
X286218866Y-84355509D02*
X286280771Y-84417414D01*
X286280771Y-84417414D02*
X286342676Y-84541223D01*
X286342676Y-84541223D02*
X286342676Y-84665033D01*
X286342676Y-84665033D02*
X286280771Y-84788842D01*
X286280771Y-84788842D02*
X286218866Y-84850747D01*
X286218866Y-84850747D02*
X286095057Y-84912652D01*
X286095057Y-84912652D02*
X285661723Y-84912652D01*
X286404580Y-135469795D02*
X286342676Y-135531700D01*
X286342676Y-135531700D02*
X286156961Y-135593604D01*
X286156961Y-135593604D02*
X286033152Y-135593604D01*
X286033152Y-135593604D02*
X285847438Y-135531700D01*
X285847438Y-135531700D02*
X285723628Y-135407890D01*
X285723628Y-135407890D02*
X285661723Y-135284080D01*
X285661723Y-135284080D02*
X285599819Y-135036461D01*
X285599819Y-135036461D02*
X285599819Y-134850747D01*
X285599819Y-134850747D02*
X285661723Y-134603128D01*
X285661723Y-134603128D02*
X285723628Y-134479319D01*
X285723628Y-134479319D02*
X285847438Y-134355509D01*
X285847438Y-134355509D02*
X286033152Y-134293604D01*
X286033152Y-134293604D02*
X286156961Y-134293604D01*
X286156961Y-134293604D02*
X286342676Y-134355509D01*
X286342676Y-134355509D02*
X286404580Y-134417414D01*
X285661723Y-185593604D02*
X285661723Y-184293604D01*
X285661723Y-184293604D02*
X285971247Y-184293604D01*
X285971247Y-184293604D02*
X286156961Y-184355509D01*
X286156961Y-184355509D02*
X286280771Y-184479319D01*
X286280771Y-184479319D02*
X286342676Y-184603128D01*
X286342676Y-184603128D02*
X286404580Y-184850747D01*
X286404580Y-184850747D02*
X286404580Y-185036461D01*
X286404580Y-185036461D02*
X286342676Y-185284080D01*
X286342676Y-185284080D02*
X286280771Y-185407890D01*
X286280771Y-185407890D02*
X286156961Y-185531700D01*
X286156961Y-185531700D02*
X285971247Y-185593604D01*
X285971247Y-185593604D02*
X285661723Y-185593604D01*
X224457826Y-189793128D02*
X224457826Y-188293128D01*
X224457826Y-188293128D02*
X224814969Y-188293128D01*
X224814969Y-188293128D02*
X225029255Y-188364557D01*
X225029255Y-188364557D02*
X225172112Y-188507414D01*
X225172112Y-188507414D02*
X225243541Y-188650271D01*
X225243541Y-188650271D02*
X225314969Y-188935985D01*
X225314969Y-188935985D02*
X225314969Y-189150271D01*
X225314969Y-189150271D02*
X225243541Y-189435985D01*
X225243541Y-189435985D02*
X225172112Y-189578842D01*
X225172112Y-189578842D02*
X225029255Y-189721700D01*
X225029255Y-189721700D02*
X224814969Y-189793128D01*
X224814969Y-189793128D02*
X224457826Y-189793128D01*
X226600684Y-189793128D02*
X226600684Y-189007414D01*
X226600684Y-189007414D02*
X226529255Y-188864557D01*
X226529255Y-188864557D02*
X226386398Y-188793128D01*
X226386398Y-188793128D02*
X226100684Y-188793128D01*
X226100684Y-188793128D02*
X225957826Y-188864557D01*
X226600684Y-189721700D02*
X226457826Y-189793128D01*
X226457826Y-189793128D02*
X226100684Y-189793128D01*
X226100684Y-189793128D02*
X225957826Y-189721700D01*
X225957826Y-189721700D02*
X225886398Y-189578842D01*
X225886398Y-189578842D02*
X225886398Y-189435985D01*
X225886398Y-189435985D02*
X225957826Y-189293128D01*
X225957826Y-189293128D02*
X226100684Y-189221700D01*
X226100684Y-189221700D02*
X226457826Y-189221700D01*
X226457826Y-189221700D02*
X226600684Y-189150271D01*
X227100684Y-188793128D02*
X227672112Y-188793128D01*
X227314969Y-188293128D02*
X227314969Y-189578842D01*
X227314969Y-189578842D02*
X227386398Y-189721700D01*
X227386398Y-189721700D02*
X227529255Y-189793128D01*
X227529255Y-189793128D02*
X227672112Y-189793128D01*
X228743541Y-189721700D02*
X228600684Y-189793128D01*
X228600684Y-189793128D02*
X228314970Y-189793128D01*
X228314970Y-189793128D02*
X228172112Y-189721700D01*
X228172112Y-189721700D02*
X228100684Y-189578842D01*
X228100684Y-189578842D02*
X228100684Y-189007414D01*
X228100684Y-189007414D02*
X228172112Y-188864557D01*
X228172112Y-188864557D02*
X228314970Y-188793128D01*
X228314970Y-188793128D02*
X228600684Y-188793128D01*
X228600684Y-188793128D02*
X228743541Y-188864557D01*
X228743541Y-188864557D02*
X228814970Y-189007414D01*
X228814970Y-189007414D02*
X228814970Y-189150271D01*
X228814970Y-189150271D02*
X228100684Y-189293128D01*
X229457826Y-189650271D02*
X229529255Y-189721700D01*
X229529255Y-189721700D02*
X229457826Y-189793128D01*
X229457826Y-189793128D02*
X229386398Y-189721700D01*
X229386398Y-189721700D02*
X229457826Y-189650271D01*
X229457826Y-189650271D02*
X229457826Y-189793128D01*
X229457826Y-188864557D02*
X229529255Y-188935985D01*
X229529255Y-188935985D02*
X229457826Y-189007414D01*
X229457826Y-189007414D02*
X229386398Y-188935985D01*
X229386398Y-188935985D02*
X229457826Y-188864557D01*
X229457826Y-188864557D02*
X229457826Y-189007414D01*
D12*
X247413653Y-185785328D02*
X246913653Y-185071042D01*
X246556510Y-185785328D02*
X246556510Y-184285328D01*
X246556510Y-184285328D02*
X247127939Y-184285328D01*
X247127939Y-184285328D02*
X247270796Y-184356757D01*
X247270796Y-184356757D02*
X247342225Y-184428185D01*
X247342225Y-184428185D02*
X247413653Y-184571042D01*
X247413653Y-184571042D02*
X247413653Y-184785328D01*
X247413653Y-184785328D02*
X247342225Y-184928185D01*
X247342225Y-184928185D02*
X247270796Y-184999614D01*
X247270796Y-184999614D02*
X247127939Y-185071042D01*
X247127939Y-185071042D02*
X246556510Y-185071042D01*
X248627939Y-185713900D02*
X248485082Y-185785328D01*
X248485082Y-185785328D02*
X248199368Y-185785328D01*
X248199368Y-185785328D02*
X248056510Y-185713900D01*
X248056510Y-185713900D02*
X247985082Y-185571042D01*
X247985082Y-185571042D02*
X247985082Y-184999614D01*
X247985082Y-184999614D02*
X248056510Y-184856757D01*
X248056510Y-184856757D02*
X248199368Y-184785328D01*
X248199368Y-184785328D02*
X248485082Y-184785328D01*
X248485082Y-184785328D02*
X248627939Y-184856757D01*
X248627939Y-184856757D02*
X248699368Y-184999614D01*
X248699368Y-184999614D02*
X248699368Y-185142471D01*
X248699368Y-185142471D02*
X247985082Y-185285328D01*
X249199367Y-184785328D02*
X249556510Y-185785328D01*
X249556510Y-185785328D02*
X249913653Y-184785328D01*
X250485081Y-185642471D02*
X250556510Y-185713900D01*
X250556510Y-185713900D02*
X250485081Y-185785328D01*
X250485081Y-185785328D02*
X250413653Y-185713900D01*
X250413653Y-185713900D02*
X250485081Y-185642471D01*
X250485081Y-185642471D02*
X250485081Y-185785328D01*
X250485081Y-184856757D02*
X250556510Y-184928185D01*
X250556510Y-184928185D02*
X250485081Y-184999614D01*
X250485081Y-184999614D02*
X250413653Y-184928185D01*
X250413653Y-184928185D02*
X250485081Y-184856757D01*
X250485081Y-184856757D02*
X250485081Y-184999614D01*
X253127939Y-185785328D02*
X252270796Y-185785328D01*
X252699367Y-185785328D02*
X252699367Y-184285328D01*
X252699367Y-184285328D02*
X252556510Y-184499614D01*
X252556510Y-184499614D02*
X252413653Y-184642471D01*
X252413653Y-184642471D02*
X252270796Y-184713900D01*
X253770795Y-185642471D02*
X253842224Y-185713900D01*
X253842224Y-185713900D02*
X253770795Y-185785328D01*
X253770795Y-185785328D02*
X253699367Y-185713900D01*
X253699367Y-185713900D02*
X253770795Y-185642471D01*
X253770795Y-185642471D02*
X253770795Y-185785328D01*
X254770796Y-184285328D02*
X254913653Y-184285328D01*
X254913653Y-184285328D02*
X255056510Y-184356757D01*
X255056510Y-184356757D02*
X255127939Y-184428185D01*
X255127939Y-184428185D02*
X255199367Y-184571042D01*
X255199367Y-184571042D02*
X255270796Y-184856757D01*
X255270796Y-184856757D02*
X255270796Y-185213900D01*
X255270796Y-185213900D02*
X255199367Y-185499614D01*
X255199367Y-185499614D02*
X255127939Y-185642471D01*
X255127939Y-185642471D02*
X255056510Y-185713900D01*
X255056510Y-185713900D02*
X254913653Y-185785328D01*
X254913653Y-185785328D02*
X254770796Y-185785328D01*
X254770796Y-185785328D02*
X254627939Y-185713900D01*
X254627939Y-185713900D02*
X254556510Y-185642471D01*
X254556510Y-185642471D02*
X254485081Y-185499614D01*
X254485081Y-185499614D02*
X254413653Y-185213900D01*
X254413653Y-185213900D02*
X254413653Y-184856757D01*
X254413653Y-184856757D02*
X254485081Y-184571042D01*
X254485081Y-184571042D02*
X254556510Y-184428185D01*
X254556510Y-184428185D02*
X254627939Y-184356757D01*
X254627939Y-184356757D02*
X254770796Y-184285328D01*
D11*
X201386398Y-189721700D02*
X201600684Y-189793128D01*
X201600684Y-189793128D02*
X201957826Y-189793128D01*
X201957826Y-189793128D02*
X202100684Y-189721700D01*
X202100684Y-189721700D02*
X202172112Y-189650271D01*
X202172112Y-189650271D02*
X202243541Y-189507414D01*
X202243541Y-189507414D02*
X202243541Y-189364557D01*
X202243541Y-189364557D02*
X202172112Y-189221700D01*
X202172112Y-189221700D02*
X202100684Y-189150271D01*
X202100684Y-189150271D02*
X201957826Y-189078842D01*
X201957826Y-189078842D02*
X201672112Y-189007414D01*
X201672112Y-189007414D02*
X201529255Y-188935985D01*
X201529255Y-188935985D02*
X201457826Y-188864557D01*
X201457826Y-188864557D02*
X201386398Y-188721700D01*
X201386398Y-188721700D02*
X201386398Y-188578842D01*
X201386398Y-188578842D02*
X201457826Y-188435985D01*
X201457826Y-188435985D02*
X201529255Y-188364557D01*
X201529255Y-188364557D02*
X201672112Y-188293128D01*
X201672112Y-188293128D02*
X202029255Y-188293128D01*
X202029255Y-188293128D02*
X202243541Y-188364557D01*
X202886397Y-189793128D02*
X202886397Y-188793128D01*
X202886397Y-188293128D02*
X202814969Y-188364557D01*
X202814969Y-188364557D02*
X202886397Y-188435985D01*
X202886397Y-188435985D02*
X202957826Y-188364557D01*
X202957826Y-188364557D02*
X202886397Y-188293128D01*
X202886397Y-188293128D02*
X202886397Y-188435985D01*
X203457826Y-188793128D02*
X204243541Y-188793128D01*
X204243541Y-188793128D02*
X203457826Y-189793128D01*
X203457826Y-189793128D02*
X204243541Y-189793128D01*
X205386398Y-189721700D02*
X205243541Y-189793128D01*
X205243541Y-189793128D02*
X204957827Y-189793128D01*
X204957827Y-189793128D02*
X204814969Y-189721700D01*
X204814969Y-189721700D02*
X204743541Y-189578842D01*
X204743541Y-189578842D02*
X204743541Y-189007414D01*
X204743541Y-189007414D02*
X204814969Y-188864557D01*
X204814969Y-188864557D02*
X204957827Y-188793128D01*
X204957827Y-188793128D02*
X205243541Y-188793128D01*
X205243541Y-188793128D02*
X205386398Y-188864557D01*
X205386398Y-188864557D02*
X205457827Y-189007414D01*
X205457827Y-189007414D02*
X205457827Y-189150271D01*
X205457827Y-189150271D02*
X204743541Y-189293128D01*
X206100683Y-189650271D02*
X206172112Y-189721700D01*
X206172112Y-189721700D02*
X206100683Y-189793128D01*
X206100683Y-189793128D02*
X206029255Y-189721700D01*
X206029255Y-189721700D02*
X206100683Y-189650271D01*
X206100683Y-189650271D02*
X206100683Y-189793128D01*
X206100683Y-188864557D02*
X206172112Y-188935985D01*
X206172112Y-188935985D02*
X206100683Y-189007414D01*
X206100683Y-189007414D02*
X206029255Y-188935985D01*
X206029255Y-188935985D02*
X206100683Y-188864557D01*
X206100683Y-188864557D02*
X206100683Y-189007414D01*
X207886398Y-189364557D02*
X208600684Y-189364557D01*
X207743541Y-189793128D02*
X208243541Y-188293128D01*
X208243541Y-188293128D02*
X208743541Y-189793128D01*
X209886398Y-188793128D02*
X209886398Y-189793128D01*
X209529255Y-188221700D02*
X209172112Y-189293128D01*
X209172112Y-189293128D02*
X210100683Y-189293128D01*
D13*
X201693728Y-179211438D02*
X202836585Y-179211438D01*
X202015157Y-181211438D02*
X202265157Y-179211438D01*
X203253252Y-181211438D02*
X203419919Y-179878104D01*
X203503252Y-179211438D02*
X203396109Y-179306676D01*
X203396109Y-179306676D02*
X203479443Y-179401914D01*
X203479443Y-179401914D02*
X203586586Y-179306676D01*
X203586586Y-179306676D02*
X203503252Y-179211438D01*
X203503252Y-179211438D02*
X203479443Y-179401914D01*
X204086586Y-179878104D02*
X204848490Y-179878104D01*
X204455633Y-179211438D02*
X204241348Y-180925723D01*
X204241348Y-180925723D02*
X204312776Y-181116200D01*
X204312776Y-181116200D02*
X204491348Y-181211438D01*
X204491348Y-181211438D02*
X204681824Y-181211438D01*
X205634205Y-181211438D02*
X205455633Y-181116200D01*
X205455633Y-181116200D02*
X205384205Y-180925723D01*
X205384205Y-180925723D02*
X205598490Y-179211438D01*
X207169919Y-181116200D02*
X206967538Y-181211438D01*
X206967538Y-181211438D02*
X206586585Y-181211438D01*
X206586585Y-181211438D02*
X206408014Y-181116200D01*
X206408014Y-181116200D02*
X206336585Y-180925723D01*
X206336585Y-180925723D02*
X206431824Y-180163819D01*
X206431824Y-180163819D02*
X206550871Y-179973342D01*
X206550871Y-179973342D02*
X206753252Y-179878104D01*
X206753252Y-179878104D02*
X207134204Y-179878104D01*
X207134204Y-179878104D02*
X207312776Y-179973342D01*
X207312776Y-179973342D02*
X207384204Y-180163819D01*
X207384204Y-180163819D02*
X207360395Y-180354295D01*
X207360395Y-180354295D02*
X206384204Y-180544771D01*
X208134205Y-181020961D02*
X208217538Y-181116200D01*
X208217538Y-181116200D02*
X208110395Y-181211438D01*
X208110395Y-181211438D02*
X208027062Y-181116200D01*
X208027062Y-181116200D02*
X208134205Y-181020961D01*
X208134205Y-181020961D02*
X208110395Y-181211438D01*
X208265157Y-179973342D02*
X208348490Y-180068580D01*
X208348490Y-180068580D02*
X208241348Y-180163819D01*
X208241348Y-180163819D02*
X208158014Y-180068580D01*
X208158014Y-180068580D02*
X208265157Y-179973342D01*
X208265157Y-179973342D02*
X208241348Y-180163819D01*
X210503253Y-181116200D02*
X210777062Y-181211438D01*
X210777062Y-181211438D02*
X211253253Y-181211438D01*
X211253253Y-181211438D02*
X211455634Y-181116200D01*
X211455634Y-181116200D02*
X211562777Y-181020961D01*
X211562777Y-181020961D02*
X211681824Y-180830485D01*
X211681824Y-180830485D02*
X211705634Y-180640009D01*
X211705634Y-180640009D02*
X211634205Y-180449533D01*
X211634205Y-180449533D02*
X211550872Y-180354295D01*
X211550872Y-180354295D02*
X211372301Y-180259057D01*
X211372301Y-180259057D02*
X211003253Y-180163819D01*
X211003253Y-180163819D02*
X210824681Y-180068580D01*
X210824681Y-180068580D02*
X210741348Y-179973342D01*
X210741348Y-179973342D02*
X210669920Y-179782866D01*
X210669920Y-179782866D02*
X210693729Y-179592390D01*
X210693729Y-179592390D02*
X210812777Y-179401914D01*
X210812777Y-179401914D02*
X210919920Y-179306676D01*
X210919920Y-179306676D02*
X211122301Y-179211438D01*
X211122301Y-179211438D02*
X211598491Y-179211438D01*
X211598491Y-179211438D02*
X211872301Y-179306676D01*
X212455634Y-179211438D02*
X213598491Y-179211438D01*
X212777063Y-181211438D02*
X213027063Y-179211438D01*
X213991349Y-180640009D02*
X214943730Y-180640009D01*
X213729444Y-181211438D02*
X214646111Y-179211438D01*
X214646111Y-179211438D02*
X215062777Y-181211438D01*
X216872301Y-181211438D02*
X216324682Y-180259057D01*
X215729444Y-181211438D02*
X215979444Y-179211438D01*
X215979444Y-179211438D02*
X216741349Y-179211438D01*
X216741349Y-179211438D02*
X216919920Y-179306676D01*
X216919920Y-179306676D02*
X217003254Y-179401914D01*
X217003254Y-179401914D02*
X217074682Y-179592390D01*
X217074682Y-179592390D02*
X217038968Y-179878104D01*
X217038968Y-179878104D02*
X216919920Y-180068580D01*
X216919920Y-180068580D02*
X216812778Y-180163819D01*
X216812778Y-180163819D02*
X216610397Y-180259057D01*
X216610397Y-180259057D02*
X215848492Y-180259057D01*
X217729444Y-181211438D02*
X217979444Y-179211438D01*
X217979444Y-179211438D02*
X218455635Y-179211438D01*
X218455635Y-179211438D02*
X218729444Y-179306676D01*
X218729444Y-179306676D02*
X218896111Y-179497152D01*
X218896111Y-179497152D02*
X218967539Y-179687628D01*
X218967539Y-179687628D02*
X219015159Y-180068580D01*
X219015159Y-180068580D02*
X218979444Y-180354295D01*
X218979444Y-180354295D02*
X218836587Y-180735247D01*
X218836587Y-180735247D02*
X218717539Y-180925723D01*
X218717539Y-180925723D02*
X218503254Y-181116200D01*
X218503254Y-181116200D02*
X218205635Y-181211438D01*
X218205635Y-181211438D02*
X217729444Y-181211438D01*
X220872301Y-181211438D02*
X220324682Y-180259057D01*
X219729444Y-181211438D02*
X219979444Y-179211438D01*
X219979444Y-179211438D02*
X220741349Y-179211438D01*
X220741349Y-179211438D02*
X220919920Y-179306676D01*
X220919920Y-179306676D02*
X221003254Y-179401914D01*
X221003254Y-179401914D02*
X221074682Y-179592390D01*
X221074682Y-179592390D02*
X221038968Y-179878104D01*
X221038968Y-179878104D02*
X220919920Y-180068580D01*
X220919920Y-180068580D02*
X220812778Y-180163819D01*
X220812778Y-180163819D02*
X220610397Y-180259057D01*
X220610397Y-180259057D02*
X219848492Y-180259057D01*
X221729444Y-181211438D02*
X221979444Y-179211438D01*
X222646111Y-179211438D02*
X223062778Y-181211438D01*
X223062778Y-181211438D02*
X223979444Y-179211438D01*
X224527064Y-180163819D02*
X225193730Y-180163819D01*
X225348492Y-181211438D02*
X224396111Y-181211438D01*
X224396111Y-181211438D02*
X224646111Y-179211438D01*
X224646111Y-179211438D02*
X225598492Y-179211438D01*
X227646112Y-181116200D02*
X227919921Y-181211438D01*
X227919921Y-181211438D02*
X228396112Y-181211438D01*
X228396112Y-181211438D02*
X228598493Y-181116200D01*
X228598493Y-181116200D02*
X228705636Y-181020961D01*
X228705636Y-181020961D02*
X228824683Y-180830485D01*
X228824683Y-180830485D02*
X228848493Y-180640009D01*
X228848493Y-180640009D02*
X228777064Y-180449533D01*
X228777064Y-180449533D02*
X228693731Y-180354295D01*
X228693731Y-180354295D02*
X228515160Y-180259057D01*
X228515160Y-180259057D02*
X228146112Y-180163819D01*
X228146112Y-180163819D02*
X227967540Y-180068580D01*
X227967540Y-180068580D02*
X227884207Y-179973342D01*
X227884207Y-179973342D02*
X227812779Y-179782866D01*
X227812779Y-179782866D02*
X227836588Y-179592390D01*
X227836588Y-179592390D02*
X227955636Y-179401914D01*
X227955636Y-179401914D02*
X228062779Y-179306676D01*
X228062779Y-179306676D02*
X228265160Y-179211438D01*
X228265160Y-179211438D02*
X228741350Y-179211438D01*
X228741350Y-179211438D02*
X229015160Y-179306676D01*
X229634207Y-181211438D02*
X229884207Y-179211438D01*
X229765160Y-180163819D02*
X230908017Y-180163819D01*
X230777064Y-181211438D02*
X231027064Y-179211438D01*
X231729445Y-181211438D02*
X231979445Y-179211438D01*
X232812779Y-180163819D02*
X233479445Y-180163819D01*
X233634207Y-181211438D02*
X232681826Y-181211438D01*
X232681826Y-181211438D02*
X232931826Y-179211438D01*
X232931826Y-179211438D02*
X233884207Y-179211438D01*
X235443731Y-181211438D02*
X234491350Y-181211438D01*
X234491350Y-181211438D02*
X234741350Y-179211438D01*
X236110398Y-181211438D02*
X236360398Y-179211438D01*
X236360398Y-179211438D02*
X236836589Y-179211438D01*
X236836589Y-179211438D02*
X237110398Y-179306676D01*
X237110398Y-179306676D02*
X237277065Y-179497152D01*
X237277065Y-179497152D02*
X237348493Y-179687628D01*
X237348493Y-179687628D02*
X237396113Y-180068580D01*
X237396113Y-180068580D02*
X237360398Y-180354295D01*
X237360398Y-180354295D02*
X237217541Y-180735247D01*
X237217541Y-180735247D02*
X237098493Y-180925723D01*
X237098493Y-180925723D02*
X236884208Y-181116200D01*
X236884208Y-181116200D02*
X236586589Y-181211438D01*
X236586589Y-181211438D02*
X236110398Y-181211438D01*
X239598494Y-179211438D02*
X240015161Y-181211438D01*
X240015161Y-181211438D02*
X240931827Y-179211438D01*
X242396113Y-181211438D02*
X241253256Y-181211438D01*
X241824685Y-181211438D02*
X242074685Y-179211438D01*
X242074685Y-179211438D02*
X241848494Y-179497152D01*
X241848494Y-179497152D02*
X241634209Y-179687628D01*
X241634209Y-179687628D02*
X241431828Y-179782866D01*
D11*
X200000000Y-183000000D02*
X285000000Y-183000000D01*
D12*
X201556510Y-194685328D02*
X201556510Y-193185328D01*
X201556510Y-193185328D02*
X202056510Y-194256757D01*
X202056510Y-194256757D02*
X202556510Y-193185328D01*
X202556510Y-193185328D02*
X202556510Y-194685328D01*
X203913654Y-194685328D02*
X203913654Y-193899614D01*
X203913654Y-193899614D02*
X203842225Y-193756757D01*
X203842225Y-193756757D02*
X203699368Y-193685328D01*
X203699368Y-193685328D02*
X203413654Y-193685328D01*
X203413654Y-193685328D02*
X203270796Y-193756757D01*
X203913654Y-194613900D02*
X203770796Y-194685328D01*
X203770796Y-194685328D02*
X203413654Y-194685328D01*
X203413654Y-194685328D02*
X203270796Y-194613900D01*
X203270796Y-194613900D02*
X203199368Y-194471042D01*
X203199368Y-194471042D02*
X203199368Y-194328185D01*
X203199368Y-194328185D02*
X203270796Y-194185328D01*
X203270796Y-194185328D02*
X203413654Y-194113900D01*
X203413654Y-194113900D02*
X203770796Y-194113900D01*
X203770796Y-194113900D02*
X203913654Y-194042471D01*
X204627939Y-194685328D02*
X204627939Y-193685328D01*
X204627939Y-193971042D02*
X204699368Y-193828185D01*
X204699368Y-193828185D02*
X204770797Y-193756757D01*
X204770797Y-193756757D02*
X204913654Y-193685328D01*
X204913654Y-193685328D02*
X205056511Y-193685328D01*
X206199368Y-194613900D02*
X206056510Y-194685328D01*
X206056510Y-194685328D02*
X205770796Y-194685328D01*
X205770796Y-194685328D02*
X205627939Y-194613900D01*
X205627939Y-194613900D02*
X205556510Y-194542471D01*
X205556510Y-194542471D02*
X205485082Y-194399614D01*
X205485082Y-194399614D02*
X205485082Y-193971042D01*
X205485082Y-193971042D02*
X205556510Y-193828185D01*
X205556510Y-193828185D02*
X205627939Y-193756757D01*
X205627939Y-193756757D02*
X205770796Y-193685328D01*
X205770796Y-193685328D02*
X206056510Y-193685328D01*
X206056510Y-193685328D02*
X206199368Y-193756757D01*
X207056510Y-194685328D02*
X206913653Y-194613900D01*
X206913653Y-194613900D02*
X206842224Y-194542471D01*
X206842224Y-194542471D02*
X206770796Y-194399614D01*
X206770796Y-194399614D02*
X206770796Y-193971042D01*
X206770796Y-193971042D02*
X206842224Y-193828185D01*
X206842224Y-193828185D02*
X206913653Y-193756757D01*
X206913653Y-193756757D02*
X207056510Y-193685328D01*
X207056510Y-193685328D02*
X207270796Y-193685328D01*
X207270796Y-193685328D02*
X207413653Y-193756757D01*
X207413653Y-193756757D02*
X207485082Y-193828185D01*
X207485082Y-193828185D02*
X207556510Y-193971042D01*
X207556510Y-193971042D02*
X207556510Y-194399614D01*
X207556510Y-194399614D02*
X207485082Y-194542471D01*
X207485082Y-194542471D02*
X207413653Y-194613900D01*
X207413653Y-194613900D02*
X207270796Y-194685328D01*
X207270796Y-194685328D02*
X207056510Y-194685328D01*
X208270796Y-193185328D02*
X208127939Y-193471042D01*
X208842225Y-194613900D02*
X208985082Y-194685328D01*
X208985082Y-194685328D02*
X209270796Y-194685328D01*
X209270796Y-194685328D02*
X209413653Y-194613900D01*
X209413653Y-194613900D02*
X209485082Y-194471042D01*
X209485082Y-194471042D02*
X209485082Y-194399614D01*
X209485082Y-194399614D02*
X209413653Y-194256757D01*
X209413653Y-194256757D02*
X209270796Y-194185328D01*
X209270796Y-194185328D02*
X209056511Y-194185328D01*
X209056511Y-194185328D02*
X208913653Y-194113900D01*
X208913653Y-194113900D02*
X208842225Y-193971042D01*
X208842225Y-193971042D02*
X208842225Y-193899614D01*
X208842225Y-193899614D02*
X208913653Y-193756757D01*
X208913653Y-193756757D02*
X209056511Y-193685328D01*
X209056511Y-193685328D02*
X209270796Y-193685328D01*
X209270796Y-193685328D02*
X209413653Y-193756757D01*
X211985082Y-194685328D02*
X211270796Y-194685328D01*
X211270796Y-194685328D02*
X211270796Y-193185328D01*
X212413654Y-194256757D02*
X213127940Y-194256757D01*
X212270797Y-194685328D02*
X212770797Y-193185328D01*
X212770797Y-193185328D02*
X213270797Y-194685328D01*
X214270796Y-193899614D02*
X214485082Y-193971042D01*
X214485082Y-193971042D02*
X214556511Y-194042471D01*
X214556511Y-194042471D02*
X214627939Y-194185328D01*
X214627939Y-194185328D02*
X214627939Y-194399614D01*
X214627939Y-194399614D02*
X214556511Y-194542471D01*
X214556511Y-194542471D02*
X214485082Y-194613900D01*
X214485082Y-194613900D02*
X214342225Y-194685328D01*
X214342225Y-194685328D02*
X213770796Y-194685328D01*
X213770796Y-194685328D02*
X213770796Y-193185328D01*
X213770796Y-193185328D02*
X214270796Y-193185328D01*
X214270796Y-193185328D02*
X214413654Y-193256757D01*
X214413654Y-193256757D02*
X214485082Y-193328185D01*
X214485082Y-193328185D02*
X214556511Y-193471042D01*
X214556511Y-193471042D02*
X214556511Y-193613900D01*
X214556511Y-193613900D02*
X214485082Y-193756757D01*
X214485082Y-193756757D02*
X214413654Y-193828185D01*
X214413654Y-193828185D02*
X214270796Y-193899614D01*
X214270796Y-193899614D02*
X213770796Y-193899614D01*
D11*
X213457826Y-185693128D02*
X213457826Y-184193128D01*
X213457826Y-184193128D02*
X213957826Y-185264557D01*
X213957826Y-185264557D02*
X214457826Y-184193128D01*
X214457826Y-184193128D02*
X214457826Y-185693128D01*
X215814970Y-185693128D02*
X215814970Y-184907414D01*
X215814970Y-184907414D02*
X215743541Y-184764557D01*
X215743541Y-184764557D02*
X215600684Y-184693128D01*
X215600684Y-184693128D02*
X215314970Y-184693128D01*
X215314970Y-184693128D02*
X215172112Y-184764557D01*
X215814970Y-185621700D02*
X215672112Y-185693128D01*
X215672112Y-185693128D02*
X215314970Y-185693128D01*
X215314970Y-185693128D02*
X215172112Y-185621700D01*
X215172112Y-185621700D02*
X215100684Y-185478842D01*
X215100684Y-185478842D02*
X215100684Y-185335985D01*
X215100684Y-185335985D02*
X215172112Y-185193128D01*
X215172112Y-185193128D02*
X215314970Y-185121700D01*
X215314970Y-185121700D02*
X215672112Y-185121700D01*
X215672112Y-185121700D02*
X215814970Y-185050271D01*
X216529255Y-185693128D02*
X216529255Y-184693128D01*
X216529255Y-184978842D02*
X216600684Y-184835985D01*
X216600684Y-184835985D02*
X216672113Y-184764557D01*
X216672113Y-184764557D02*
X216814970Y-184693128D01*
X216814970Y-184693128D02*
X216957827Y-184693128D01*
X218100684Y-185621700D02*
X217957826Y-185693128D01*
X217957826Y-185693128D02*
X217672112Y-185693128D01*
X217672112Y-185693128D02*
X217529255Y-185621700D01*
X217529255Y-185621700D02*
X217457826Y-185550271D01*
X217457826Y-185550271D02*
X217386398Y-185407414D01*
X217386398Y-185407414D02*
X217386398Y-184978842D01*
X217386398Y-184978842D02*
X217457826Y-184835985D01*
X217457826Y-184835985D02*
X217529255Y-184764557D01*
X217529255Y-184764557D02*
X217672112Y-184693128D01*
X217672112Y-184693128D02*
X217957826Y-184693128D01*
X217957826Y-184693128D02*
X218100684Y-184764557D01*
X218957826Y-185693128D02*
X218814969Y-185621700D01*
X218814969Y-185621700D02*
X218743540Y-185550271D01*
X218743540Y-185550271D02*
X218672112Y-185407414D01*
X218672112Y-185407414D02*
X218672112Y-184978842D01*
X218672112Y-184978842D02*
X218743540Y-184835985D01*
X218743540Y-184835985D02*
X218814969Y-184764557D01*
X218814969Y-184764557D02*
X218957826Y-184693128D01*
X218957826Y-184693128D02*
X219172112Y-184693128D01*
X219172112Y-184693128D02*
X219314969Y-184764557D01*
X219314969Y-184764557D02*
X219386398Y-184835985D01*
X219386398Y-184835985D02*
X219457826Y-184978842D01*
X219457826Y-184978842D02*
X219457826Y-185407414D01*
X219457826Y-185407414D02*
X219386398Y-185550271D01*
X219386398Y-185550271D02*
X219314969Y-185621700D01*
X219314969Y-185621700D02*
X219172112Y-185693128D01*
X219172112Y-185693128D02*
X218957826Y-185693128D01*
X221243540Y-185693128D02*
X221243540Y-184193128D01*
X221243540Y-184193128D02*
X221743540Y-185264557D01*
X221743540Y-185264557D02*
X222243540Y-184193128D01*
X222243540Y-184193128D02*
X222243540Y-185693128D01*
X223600684Y-185693128D02*
X223600684Y-184907414D01*
X223600684Y-184907414D02*
X223529255Y-184764557D01*
X223529255Y-184764557D02*
X223386398Y-184693128D01*
X223386398Y-184693128D02*
X223100684Y-184693128D01*
X223100684Y-184693128D02*
X222957826Y-184764557D01*
X223600684Y-185621700D02*
X223457826Y-185693128D01*
X223457826Y-185693128D02*
X223100684Y-185693128D01*
X223100684Y-185693128D02*
X222957826Y-185621700D01*
X222957826Y-185621700D02*
X222886398Y-185478842D01*
X222886398Y-185478842D02*
X222886398Y-185335985D01*
X222886398Y-185335985D02*
X222957826Y-185193128D01*
X222957826Y-185193128D02*
X223100684Y-185121700D01*
X223100684Y-185121700D02*
X223457826Y-185121700D01*
X223457826Y-185121700D02*
X223600684Y-185050271D01*
X224243541Y-185621700D02*
X224386398Y-185693128D01*
X224386398Y-185693128D02*
X224672112Y-185693128D01*
X224672112Y-185693128D02*
X224814969Y-185621700D01*
X224814969Y-185621700D02*
X224886398Y-185478842D01*
X224886398Y-185478842D02*
X224886398Y-185407414D01*
X224886398Y-185407414D02*
X224814969Y-185264557D01*
X224814969Y-185264557D02*
X224672112Y-185193128D01*
X224672112Y-185193128D02*
X224457827Y-185193128D01*
X224457827Y-185193128D02*
X224314969Y-185121700D01*
X224314969Y-185121700D02*
X224243541Y-184978842D01*
X224243541Y-184978842D02*
X224243541Y-184907414D01*
X224243541Y-184907414D02*
X224314969Y-184764557D01*
X224314969Y-184764557D02*
X224457827Y-184693128D01*
X224457827Y-184693128D02*
X224672112Y-184693128D01*
X224672112Y-184693128D02*
X224814969Y-184764557D01*
X226172113Y-185621700D02*
X226029255Y-185693128D01*
X226029255Y-185693128D02*
X225743541Y-185693128D01*
X225743541Y-185693128D02*
X225600684Y-185621700D01*
X225600684Y-185621700D02*
X225529255Y-185550271D01*
X225529255Y-185550271D02*
X225457827Y-185407414D01*
X225457827Y-185407414D02*
X225457827Y-184978842D01*
X225457827Y-184978842D02*
X225529255Y-184835985D01*
X225529255Y-184835985D02*
X225600684Y-184764557D01*
X225600684Y-184764557D02*
X225743541Y-184693128D01*
X225743541Y-184693128D02*
X226029255Y-184693128D01*
X226029255Y-184693128D02*
X226172113Y-184764557D01*
X227029255Y-185693128D02*
X226886398Y-185621700D01*
X226886398Y-185621700D02*
X226814969Y-185550271D01*
X226814969Y-185550271D02*
X226743541Y-185407414D01*
X226743541Y-185407414D02*
X226743541Y-184978842D01*
X226743541Y-184978842D02*
X226814969Y-184835985D01*
X226814969Y-184835985D02*
X226886398Y-184764557D01*
X226886398Y-184764557D02*
X227029255Y-184693128D01*
X227029255Y-184693128D02*
X227243541Y-184693128D01*
X227243541Y-184693128D02*
X227386398Y-184764557D01*
X227386398Y-184764557D02*
X227457827Y-184835985D01*
X227457827Y-184835985D02*
X227529255Y-184978842D01*
X227529255Y-184978842D02*
X227529255Y-185407414D01*
X227529255Y-185407414D02*
X227457827Y-185550271D01*
X227457827Y-185550271D02*
X227386398Y-185621700D01*
X227386398Y-185621700D02*
X227243541Y-185693128D01*
X227243541Y-185693128D02*
X227029255Y-185693128D01*
X228386398Y-185693128D02*
X228243541Y-185621700D01*
X228243541Y-185621700D02*
X228172112Y-185478842D01*
X228172112Y-185478842D02*
X228172112Y-184193128D01*
X228957826Y-185693128D02*
X228957826Y-184693128D01*
X228957826Y-184193128D02*
X228886398Y-184264557D01*
X228886398Y-184264557D02*
X228957826Y-184335985D01*
X228957826Y-184335985D02*
X229029255Y-184264557D01*
X229029255Y-184264557D02*
X228957826Y-184193128D01*
X228957826Y-184193128D02*
X228957826Y-184335985D01*
X229672112Y-184693128D02*
X229672112Y-185693128D01*
X229672112Y-184835985D02*
X229743541Y-184764557D01*
X229743541Y-184764557D02*
X229886398Y-184693128D01*
X229886398Y-184693128D02*
X230100684Y-184693128D01*
X230100684Y-184693128D02*
X230243541Y-184764557D01*
X230243541Y-184764557D02*
X230314970Y-184907414D01*
X230314970Y-184907414D02*
X230314970Y-185693128D01*
X231029255Y-185693128D02*
X231029255Y-184693128D01*
X231029255Y-184193128D02*
X230957827Y-184264557D01*
X230957827Y-184264557D02*
X231029255Y-184335985D01*
X231029255Y-184335985D02*
X231100684Y-184264557D01*
X231100684Y-184264557D02*
X231029255Y-184193128D01*
X231029255Y-184193128D02*
X231029255Y-184335985D01*
D12*
X201554710Y-184892814D02*
X202054710Y-184892814D01*
X202268996Y-185678528D02*
X201554710Y-185678528D01*
X201554710Y-185678528D02*
X201554710Y-184178528D01*
X201554710Y-184178528D02*
X202268996Y-184178528D01*
X202911853Y-184678528D02*
X202911853Y-185678528D01*
X202911853Y-184821385D02*
X202983282Y-184749957D01*
X202983282Y-184749957D02*
X203126139Y-184678528D01*
X203126139Y-184678528D02*
X203340425Y-184678528D01*
X203340425Y-184678528D02*
X203483282Y-184749957D01*
X203483282Y-184749957D02*
X203554711Y-184892814D01*
X203554711Y-184892814D02*
X203554711Y-185678528D01*
X204911854Y-184678528D02*
X204911854Y-185892814D01*
X204911854Y-185892814D02*
X204840425Y-186035671D01*
X204840425Y-186035671D02*
X204768996Y-186107100D01*
X204768996Y-186107100D02*
X204626139Y-186178528D01*
X204626139Y-186178528D02*
X204411854Y-186178528D01*
X204411854Y-186178528D02*
X204268996Y-186107100D01*
X204911854Y-185607100D02*
X204768996Y-185678528D01*
X204768996Y-185678528D02*
X204483282Y-185678528D01*
X204483282Y-185678528D02*
X204340425Y-185607100D01*
X204340425Y-185607100D02*
X204268996Y-185535671D01*
X204268996Y-185535671D02*
X204197568Y-185392814D01*
X204197568Y-185392814D02*
X204197568Y-184964242D01*
X204197568Y-184964242D02*
X204268996Y-184821385D01*
X204268996Y-184821385D02*
X204340425Y-184749957D01*
X204340425Y-184749957D02*
X204483282Y-184678528D01*
X204483282Y-184678528D02*
X204768996Y-184678528D01*
X204768996Y-184678528D02*
X204911854Y-184749957D01*
X205626139Y-185678528D02*
X205626139Y-184678528D01*
X205626139Y-184178528D02*
X205554711Y-184249957D01*
X205554711Y-184249957D02*
X205626139Y-184321385D01*
X205626139Y-184321385D02*
X205697568Y-184249957D01*
X205697568Y-184249957D02*
X205626139Y-184178528D01*
X205626139Y-184178528D02*
X205626139Y-184321385D01*
X206340425Y-184678528D02*
X206340425Y-185678528D01*
X206340425Y-184821385D02*
X206411854Y-184749957D01*
X206411854Y-184749957D02*
X206554711Y-184678528D01*
X206554711Y-184678528D02*
X206768997Y-184678528D01*
X206768997Y-184678528D02*
X206911854Y-184749957D01*
X206911854Y-184749957D02*
X206983283Y-184892814D01*
X206983283Y-184892814D02*
X206983283Y-185678528D01*
X208268997Y-185607100D02*
X208126140Y-185678528D01*
X208126140Y-185678528D02*
X207840426Y-185678528D01*
X207840426Y-185678528D02*
X207697568Y-185607100D01*
X207697568Y-185607100D02*
X207626140Y-185464242D01*
X207626140Y-185464242D02*
X207626140Y-184892814D01*
X207626140Y-184892814D02*
X207697568Y-184749957D01*
X207697568Y-184749957D02*
X207840426Y-184678528D01*
X207840426Y-184678528D02*
X208126140Y-184678528D01*
X208126140Y-184678528D02*
X208268997Y-184749957D01*
X208268997Y-184749957D02*
X208340426Y-184892814D01*
X208340426Y-184892814D02*
X208340426Y-185035671D01*
X208340426Y-185035671D02*
X207626140Y-185178528D01*
X209554711Y-185607100D02*
X209411854Y-185678528D01*
X209411854Y-185678528D02*
X209126140Y-185678528D01*
X209126140Y-185678528D02*
X208983282Y-185607100D01*
X208983282Y-185607100D02*
X208911854Y-185464242D01*
X208911854Y-185464242D02*
X208911854Y-184892814D01*
X208911854Y-184892814D02*
X208983282Y-184749957D01*
X208983282Y-184749957D02*
X209126140Y-184678528D01*
X209126140Y-184678528D02*
X209411854Y-184678528D01*
X209411854Y-184678528D02*
X209554711Y-184749957D01*
X209554711Y-184749957D02*
X209626140Y-184892814D01*
X209626140Y-184892814D02*
X209626140Y-185035671D01*
X209626140Y-185035671D02*
X208911854Y-185178528D01*
X210268996Y-185678528D02*
X210268996Y-184678528D01*
X210268996Y-184964242D02*
X210340425Y-184821385D01*
X210340425Y-184821385D02*
X210411854Y-184749957D01*
X210411854Y-184749957D02*
X210554711Y-184678528D01*
X210554711Y-184678528D02*
X210697568Y-184678528D01*
X211197567Y-185535671D02*
X211268996Y-185607100D01*
X211268996Y-185607100D02*
X211197567Y-185678528D01*
X211197567Y-185678528D02*
X211126139Y-185607100D01*
X211126139Y-185607100D02*
X211197567Y-185535671D01*
X211197567Y-185535671D02*
X211197567Y-185678528D01*
X211197567Y-184749957D02*
X211268996Y-184821385D01*
X211268996Y-184821385D02*
X211197567Y-184892814D01*
X211197567Y-184892814D02*
X211126139Y-184821385D01*
X211126139Y-184821385D02*
X211197567Y-184749957D01*
X211197567Y-184749957D02*
X211197567Y-184892814D01*
D11*
X200000000Y-198000000D02*
X200000000Y-177000000D01*
X200000000Y-187000000D02*
X285000000Y-187000000D01*
X244000000Y-183000000D02*
X244000000Y-187000000D01*
X200000000Y-191000000D02*
X285000000Y-191000000D01*
X260000000Y-191000000D02*
X260000000Y-198000000D01*
X221000000Y-187000000D02*
X221000000Y-191000000D01*
X261455826Y-193478670D02*
X261455826Y-191978670D01*
X261455826Y-191978670D02*
X262027255Y-191978670D01*
X262027255Y-191978670D02*
X262170112Y-192050099D01*
X262170112Y-192050099D02*
X262241541Y-192121527D01*
X262241541Y-192121527D02*
X262312969Y-192264384D01*
X262312969Y-192264384D02*
X262312969Y-192478670D01*
X262312969Y-192478670D02*
X262241541Y-192621527D01*
X262241541Y-192621527D02*
X262170112Y-192692956D01*
X262170112Y-192692956D02*
X262027255Y-192764384D01*
X262027255Y-192764384D02*
X261455826Y-192764384D01*
X263598684Y-193478670D02*
X263598684Y-192692956D01*
X263598684Y-192692956D02*
X263527255Y-192550099D01*
X263527255Y-192550099D02*
X263384398Y-192478670D01*
X263384398Y-192478670D02*
X263098684Y-192478670D01*
X263098684Y-192478670D02*
X262955826Y-192550099D01*
X263598684Y-193407242D02*
X263455826Y-193478670D01*
X263455826Y-193478670D02*
X263098684Y-193478670D01*
X263098684Y-193478670D02*
X262955826Y-193407242D01*
X262955826Y-193407242D02*
X262884398Y-193264384D01*
X262884398Y-193264384D02*
X262884398Y-193121527D01*
X262884398Y-193121527D02*
X262955826Y-192978670D01*
X262955826Y-192978670D02*
X263098684Y-192907242D01*
X263098684Y-192907242D02*
X263455826Y-192907242D01*
X263455826Y-192907242D02*
X263598684Y-192835813D01*
X264955827Y-192478670D02*
X264955827Y-193692956D01*
X264955827Y-193692956D02*
X264884398Y-193835813D01*
X264884398Y-193835813D02*
X264812969Y-193907242D01*
X264812969Y-193907242D02*
X264670112Y-193978670D01*
X264670112Y-193978670D02*
X264455827Y-193978670D01*
X264455827Y-193978670D02*
X264312969Y-193907242D01*
X264955827Y-193407242D02*
X264812969Y-193478670D01*
X264812969Y-193478670D02*
X264527255Y-193478670D01*
X264527255Y-193478670D02*
X264384398Y-193407242D01*
X264384398Y-193407242D02*
X264312969Y-193335813D01*
X264312969Y-193335813D02*
X264241541Y-193192956D01*
X264241541Y-193192956D02*
X264241541Y-192764384D01*
X264241541Y-192764384D02*
X264312969Y-192621527D01*
X264312969Y-192621527D02*
X264384398Y-192550099D01*
X264384398Y-192550099D02*
X264527255Y-192478670D01*
X264527255Y-192478670D02*
X264812969Y-192478670D01*
X264812969Y-192478670D02*
X264955827Y-192550099D01*
X266241541Y-193407242D02*
X266098684Y-193478670D01*
X266098684Y-193478670D02*
X265812970Y-193478670D01*
X265812970Y-193478670D02*
X265670112Y-193407242D01*
X265670112Y-193407242D02*
X265598684Y-193264384D01*
X265598684Y-193264384D02*
X265598684Y-192692956D01*
X265598684Y-192692956D02*
X265670112Y-192550099D01*
X265670112Y-192550099D02*
X265812970Y-192478670D01*
X265812970Y-192478670D02*
X266098684Y-192478670D01*
X266098684Y-192478670D02*
X266241541Y-192550099D01*
X266241541Y-192550099D02*
X266312970Y-192692956D01*
X266312970Y-192692956D02*
X266312970Y-192835813D01*
X266312970Y-192835813D02*
X265598684Y-192978670D01*
X266955826Y-193335813D02*
X267027255Y-193407242D01*
X267027255Y-193407242D02*
X266955826Y-193478670D01*
X266955826Y-193478670D02*
X266884398Y-193407242D01*
X266884398Y-193407242D02*
X266955826Y-193335813D01*
X266955826Y-193335813D02*
X266955826Y-193478670D01*
X266955826Y-192550099D02*
X267027255Y-192621527D01*
X267027255Y-192621527D02*
X266955826Y-192692956D01*
X266955826Y-192692956D02*
X266884398Y-192621527D01*
X266884398Y-192621527D02*
X266955826Y-192550099D01*
X266955826Y-192550099D02*
X266955826Y-192692956D01*
X262241541Y-195893586D02*
X261384398Y-195893586D01*
X261812969Y-195893586D02*
X261812969Y-194393586D01*
X261812969Y-194393586D02*
X261670112Y-194607872D01*
X261670112Y-194607872D02*
X261527255Y-194750729D01*
X261527255Y-194750729D02*
X261384398Y-194822158D01*
X263598683Y-194393586D02*
X262884397Y-194393586D01*
X262884397Y-194393586D02*
X262812969Y-195107872D01*
X262812969Y-195107872D02*
X262884397Y-195036443D01*
X262884397Y-195036443D02*
X263027255Y-194965015D01*
X263027255Y-194965015D02*
X263384397Y-194965015D01*
X263384397Y-194965015D02*
X263527255Y-195036443D01*
X263527255Y-195036443D02*
X263598683Y-195107872D01*
X263598683Y-195107872D02*
X263670112Y-195250729D01*
X263670112Y-195250729D02*
X263670112Y-195607872D01*
X263670112Y-195607872D02*
X263598683Y-195750729D01*
X263598683Y-195750729D02*
X263527255Y-195822158D01*
X263527255Y-195822158D02*
X263384397Y-195893586D01*
X263384397Y-195893586D02*
X263027255Y-195893586D01*
X263027255Y-195893586D02*
X262884397Y-195822158D01*
X262884397Y-195822158D02*
X262812969Y-195750729D01*
X265384397Y-194322158D02*
X264098683Y-196250729D01*
X266670112Y-195893586D02*
X265812969Y-195893586D01*
X266241540Y-195893586D02*
X266241540Y-194393586D01*
X266241540Y-194393586D02*
X266098683Y-194607872D01*
X266098683Y-194607872D02*
X265955826Y-194750729D01*
X265955826Y-194750729D02*
X265812969Y-194822158D01*
X268027254Y-194393586D02*
X267312968Y-194393586D01*
X267312968Y-194393586D02*
X267241540Y-195107872D01*
X267241540Y-195107872D02*
X267312968Y-195036443D01*
X267312968Y-195036443D02*
X267455826Y-194965015D01*
X267455826Y-194965015D02*
X267812968Y-194965015D01*
X267812968Y-194965015D02*
X267955826Y-195036443D01*
X267955826Y-195036443D02*
X268027254Y-195107872D01*
X268027254Y-195107872D02*
X268098683Y-195250729D01*
X268098683Y-195250729D02*
X268098683Y-195607872D01*
X268098683Y-195607872D02*
X268027254Y-195750729D01*
X268027254Y-195750729D02*
X267955826Y-195822158D01*
X267955826Y-195822158D02*
X267812968Y-195893586D01*
X267812968Y-195893586D02*
X267455826Y-195893586D01*
X267455826Y-195893586D02*
X267312968Y-195822158D01*
X267312968Y-195822158D02*
X267241540Y-195750729D01*
M02*
