%TF.GenerationSoftware,KiCad,Pcbnew,10.0.0*%
%TF.CreationDate,2026-07-27T20:59:18+02:00*%
%TF.ProjectId,STARDRIVE_SHIELD_V1_0,53544152-4452-4495-9645-5f534849454c,1.0*%
%TF.SameCoordinates,Original*%
%TF.FileFunction,Glue,Top*%
%TF.FilePolarity,Positive*%
%FSLAX46Y46*%
G04 Gerber Fmt 4.6, Leading zero omitted, Abs format (unit mm)*
G04 Created by KiCad (PCBNEW 10.0.0) date 2026-07-27 20:59:18*
%MOMM*%
%LPD*%
G01*
G04 APERTURE LIST*
%ADD10C,0.100000*%
%ADD11C,0.150000*%
%ADD12C,0.300000*%
%ADD13C,0.400000*%
%TA.AperFunction,Profile*%
%ADD14C,0.100000*%
%TD*%
G04 APERTURE END LIST*
D10*
X175954546Y-174454546D02*
X175954546Y-197545455D01*
X199045455Y-197545455D01*
X199045455Y-174454546D01*
X175954546Y-174454546D01*
D11*
X10000000Y-10000000D02*
X287002200Y-10000000D01*
X287002200Y-200007200D01*
X10000000Y-200007200D01*
X10000000Y-10000000D01*
X12000000Y-12000000D02*
X285002200Y-12000000D01*
X285002200Y-198007200D01*
X12000000Y-198007200D01*
X12000000Y-12000000D01*
X60000000Y-12000000D02*
X60000000Y-10000000D01*
X110000000Y-12000000D02*
X110000000Y-10000000D01*
X160000000Y-12000000D02*
X160000000Y-10000000D01*
X210000000Y-12000000D02*
X210000000Y-10000000D01*
X260000000Y-12000000D02*
X260000000Y-10000000D01*
X36089160Y-11593604D02*
X35346303Y-11593604D01*
X35717731Y-11593604D02*
X35717731Y-10293604D01*
X35717731Y-10293604D02*
X35593922Y-10479319D01*
X35593922Y-10479319D02*
X35470112Y-10603128D01*
X35470112Y-10603128D02*
X35346303Y-10665033D01*
X85346303Y-10417414D02*
X85408207Y-10355509D01*
X85408207Y-10355509D02*
X85532017Y-10293604D01*
X85532017Y-10293604D02*
X85841541Y-10293604D01*
X85841541Y-10293604D02*
X85965350Y-10355509D01*
X85965350Y-10355509D02*
X86027255Y-10417414D01*
X86027255Y-10417414D02*
X86089160Y-10541223D01*
X86089160Y-10541223D02*
X86089160Y-10665033D01*
X86089160Y-10665033D02*
X86027255Y-10850747D01*
X86027255Y-10850747D02*
X85284398Y-11593604D01*
X85284398Y-11593604D02*
X86089160Y-11593604D01*
X135284398Y-10293604D02*
X136089160Y-10293604D01*
X136089160Y-10293604D02*
X135655826Y-10788842D01*
X135655826Y-10788842D02*
X135841541Y-10788842D01*
X135841541Y-10788842D02*
X135965350Y-10850747D01*
X135965350Y-10850747D02*
X136027255Y-10912652D01*
X136027255Y-10912652D02*
X136089160Y-11036461D01*
X136089160Y-11036461D02*
X136089160Y-11345985D01*
X136089160Y-11345985D02*
X136027255Y-11469795D01*
X136027255Y-11469795D02*
X135965350Y-11531700D01*
X135965350Y-11531700D02*
X135841541Y-11593604D01*
X135841541Y-11593604D02*
X135470112Y-11593604D01*
X135470112Y-11593604D02*
X135346303Y-11531700D01*
X135346303Y-11531700D02*
X135284398Y-11469795D01*
X185965350Y-10726938D02*
X185965350Y-11593604D01*
X185655826Y-10231700D02*
X185346303Y-11160271D01*
X185346303Y-11160271D02*
X186151064Y-11160271D01*
X236027255Y-10293604D02*
X235408207Y-10293604D01*
X235408207Y-10293604D02*
X235346303Y-10912652D01*
X235346303Y-10912652D02*
X235408207Y-10850747D01*
X235408207Y-10850747D02*
X235532017Y-10788842D01*
X235532017Y-10788842D02*
X235841541Y-10788842D01*
X235841541Y-10788842D02*
X235965350Y-10850747D01*
X235965350Y-10850747D02*
X236027255Y-10912652D01*
X236027255Y-10912652D02*
X236089160Y-11036461D01*
X236089160Y-11036461D02*
X236089160Y-11345985D01*
X236089160Y-11345985D02*
X236027255Y-11469795D01*
X236027255Y-11469795D02*
X235965350Y-11531700D01*
X235965350Y-11531700D02*
X235841541Y-11593604D01*
X235841541Y-11593604D02*
X235532017Y-11593604D01*
X235532017Y-11593604D02*
X235408207Y-11531700D01*
X235408207Y-11531700D02*
X235346303Y-11469795D01*
X285965350Y-10293604D02*
X285717731Y-10293604D01*
X285717731Y-10293604D02*
X285593922Y-10355509D01*
X285593922Y-10355509D02*
X285532017Y-10417414D01*
X285532017Y-10417414D02*
X285408207Y-10603128D01*
X285408207Y-10603128D02*
X285346303Y-10850747D01*
X285346303Y-10850747D02*
X285346303Y-11345985D01*
X285346303Y-11345985D02*
X285408207Y-11469795D01*
X285408207Y-11469795D02*
X285470112Y-11531700D01*
X285470112Y-11531700D02*
X285593922Y-11593604D01*
X285593922Y-11593604D02*
X285841541Y-11593604D01*
X285841541Y-11593604D02*
X285965350Y-11531700D01*
X285965350Y-11531700D02*
X286027255Y-11469795D01*
X286027255Y-11469795D02*
X286089160Y-11345985D01*
X286089160Y-11345985D02*
X286089160Y-11036461D01*
X286089160Y-11036461D02*
X286027255Y-10912652D01*
X286027255Y-10912652D02*
X285965350Y-10850747D01*
X285965350Y-10850747D02*
X285841541Y-10788842D01*
X285841541Y-10788842D02*
X285593922Y-10788842D01*
X285593922Y-10788842D02*
X285470112Y-10850747D01*
X285470112Y-10850747D02*
X285408207Y-10912652D01*
X285408207Y-10912652D02*
X285346303Y-11036461D01*
X60000000Y-198007200D02*
X60000000Y-200007200D01*
X110000000Y-198007200D02*
X110000000Y-200007200D01*
X160000000Y-198007200D02*
X160000000Y-200007200D01*
X210000000Y-198007200D02*
X210000000Y-200007200D01*
X260000000Y-198007200D02*
X260000000Y-200007200D01*
X36089160Y-199600804D02*
X35346303Y-199600804D01*
X35717731Y-199600804D02*
X35717731Y-198300804D01*
X35717731Y-198300804D02*
X35593922Y-198486519D01*
X35593922Y-198486519D02*
X35470112Y-198610328D01*
X35470112Y-198610328D02*
X35346303Y-198672233D01*
X85346303Y-198424614D02*
X85408207Y-198362709D01*
X85408207Y-198362709D02*
X85532017Y-198300804D01*
X85532017Y-198300804D02*
X85841541Y-198300804D01*
X85841541Y-198300804D02*
X85965350Y-198362709D01*
X85965350Y-198362709D02*
X86027255Y-198424614D01*
X86027255Y-198424614D02*
X86089160Y-198548423D01*
X86089160Y-198548423D02*
X86089160Y-198672233D01*
X86089160Y-198672233D02*
X86027255Y-198857947D01*
X86027255Y-198857947D02*
X85284398Y-199600804D01*
X85284398Y-199600804D02*
X86089160Y-199600804D01*
X135284398Y-198300804D02*
X136089160Y-198300804D01*
X136089160Y-198300804D02*
X135655826Y-198796042D01*
X135655826Y-198796042D02*
X135841541Y-198796042D01*
X135841541Y-198796042D02*
X135965350Y-198857947D01*
X135965350Y-198857947D02*
X136027255Y-198919852D01*
X136027255Y-198919852D02*
X136089160Y-199043661D01*
X136089160Y-199043661D02*
X136089160Y-199353185D01*
X136089160Y-199353185D02*
X136027255Y-199476995D01*
X136027255Y-199476995D02*
X135965350Y-199538900D01*
X135965350Y-199538900D02*
X135841541Y-199600804D01*
X135841541Y-199600804D02*
X135470112Y-199600804D01*
X135470112Y-199600804D02*
X135346303Y-199538900D01*
X135346303Y-199538900D02*
X135284398Y-199476995D01*
X185965350Y-198734138D02*
X185965350Y-199600804D01*
X185655826Y-198238900D02*
X185346303Y-199167471D01*
X185346303Y-199167471D02*
X186151064Y-199167471D01*
X236027255Y-198300804D02*
X235408207Y-198300804D01*
X235408207Y-198300804D02*
X235346303Y-198919852D01*
X235346303Y-198919852D02*
X235408207Y-198857947D01*
X235408207Y-198857947D02*
X235532017Y-198796042D01*
X235532017Y-198796042D02*
X235841541Y-198796042D01*
X235841541Y-198796042D02*
X235965350Y-198857947D01*
X235965350Y-198857947D02*
X236027255Y-198919852D01*
X236027255Y-198919852D02*
X236089160Y-199043661D01*
X236089160Y-199043661D02*
X236089160Y-199353185D01*
X236089160Y-199353185D02*
X236027255Y-199476995D01*
X236027255Y-199476995D02*
X235965350Y-199538900D01*
X235965350Y-199538900D02*
X235841541Y-199600804D01*
X235841541Y-199600804D02*
X235532017Y-199600804D01*
X235532017Y-199600804D02*
X235408207Y-199538900D01*
X235408207Y-199538900D02*
X235346303Y-199476995D01*
X285965350Y-198300804D02*
X285717731Y-198300804D01*
X285717731Y-198300804D02*
X285593922Y-198362709D01*
X285593922Y-198362709D02*
X285532017Y-198424614D01*
X285532017Y-198424614D02*
X285408207Y-198610328D01*
X285408207Y-198610328D02*
X285346303Y-198857947D01*
X285346303Y-198857947D02*
X285346303Y-199353185D01*
X285346303Y-199353185D02*
X285408207Y-199476995D01*
X285408207Y-199476995D02*
X285470112Y-199538900D01*
X285470112Y-199538900D02*
X285593922Y-199600804D01*
X285593922Y-199600804D02*
X285841541Y-199600804D01*
X285841541Y-199600804D02*
X285965350Y-199538900D01*
X285965350Y-199538900D02*
X286027255Y-199476995D01*
X286027255Y-199476995D02*
X286089160Y-199353185D01*
X286089160Y-199353185D02*
X286089160Y-199043661D01*
X286089160Y-199043661D02*
X286027255Y-198919852D01*
X286027255Y-198919852D02*
X285965350Y-198857947D01*
X285965350Y-198857947D02*
X285841541Y-198796042D01*
X285841541Y-198796042D02*
X285593922Y-198796042D01*
X285593922Y-198796042D02*
X285470112Y-198857947D01*
X285470112Y-198857947D02*
X285408207Y-198919852D01*
X285408207Y-198919852D02*
X285346303Y-199043661D01*
X10000000Y-60000000D02*
X12000000Y-60000000D01*
X10000000Y-110000000D02*
X12000000Y-110000000D01*
X10000000Y-160000000D02*
X12000000Y-160000000D01*
X10690476Y-35222176D02*
X11309523Y-35222176D01*
X10566666Y-35593604D02*
X10999999Y-34293604D01*
X10999999Y-34293604D02*
X11433333Y-35593604D01*
X11092857Y-84912652D02*
X11278571Y-84974557D01*
X11278571Y-84974557D02*
X11340476Y-85036461D01*
X11340476Y-85036461D02*
X11402380Y-85160271D01*
X11402380Y-85160271D02*
X11402380Y-85345985D01*
X11402380Y-85345985D02*
X11340476Y-85469795D01*
X11340476Y-85469795D02*
X11278571Y-85531700D01*
X11278571Y-85531700D02*
X11154761Y-85593604D01*
X11154761Y-85593604D02*
X10659523Y-85593604D01*
X10659523Y-85593604D02*
X10659523Y-84293604D01*
X10659523Y-84293604D02*
X11092857Y-84293604D01*
X11092857Y-84293604D02*
X11216666Y-84355509D01*
X11216666Y-84355509D02*
X11278571Y-84417414D01*
X11278571Y-84417414D02*
X11340476Y-84541223D01*
X11340476Y-84541223D02*
X11340476Y-84665033D01*
X11340476Y-84665033D02*
X11278571Y-84788842D01*
X11278571Y-84788842D02*
X11216666Y-84850747D01*
X11216666Y-84850747D02*
X11092857Y-84912652D01*
X11092857Y-84912652D02*
X10659523Y-84912652D01*
X11402380Y-135469795D02*
X11340476Y-135531700D01*
X11340476Y-135531700D02*
X11154761Y-135593604D01*
X11154761Y-135593604D02*
X11030952Y-135593604D01*
X11030952Y-135593604D02*
X10845238Y-135531700D01*
X10845238Y-135531700D02*
X10721428Y-135407890D01*
X10721428Y-135407890D02*
X10659523Y-135284080D01*
X10659523Y-135284080D02*
X10597619Y-135036461D01*
X10597619Y-135036461D02*
X10597619Y-134850747D01*
X10597619Y-134850747D02*
X10659523Y-134603128D01*
X10659523Y-134603128D02*
X10721428Y-134479319D01*
X10721428Y-134479319D02*
X10845238Y-134355509D01*
X10845238Y-134355509D02*
X11030952Y-134293604D01*
X11030952Y-134293604D02*
X11154761Y-134293604D01*
X11154761Y-134293604D02*
X11340476Y-134355509D01*
X11340476Y-134355509D02*
X11402380Y-134417414D01*
X10659523Y-185593604D02*
X10659523Y-184293604D01*
X10659523Y-184293604D02*
X10969047Y-184293604D01*
X10969047Y-184293604D02*
X11154761Y-184355509D01*
X11154761Y-184355509D02*
X11278571Y-184479319D01*
X11278571Y-184479319D02*
X11340476Y-184603128D01*
X11340476Y-184603128D02*
X11402380Y-184850747D01*
X11402380Y-184850747D02*
X11402380Y-185036461D01*
X11402380Y-185036461D02*
X11340476Y-185284080D01*
X11340476Y-185284080D02*
X11278571Y-185407890D01*
X11278571Y-185407890D02*
X11154761Y-185531700D01*
X11154761Y-185531700D02*
X10969047Y-185593604D01*
X10969047Y-185593604D02*
X10659523Y-185593604D01*
X287002200Y-60000000D02*
X285002200Y-60000000D01*
X287002200Y-110000000D02*
X285002200Y-110000000D01*
X287002200Y-160000000D02*
X285002200Y-160000000D01*
X285692676Y-35222176D02*
X286311723Y-35222176D01*
X285568866Y-35593604D02*
X286002199Y-34293604D01*
X286002199Y-34293604D02*
X286435533Y-35593604D01*
X286095057Y-84912652D02*
X286280771Y-84974557D01*
X286280771Y-84974557D02*
X286342676Y-85036461D01*
X286342676Y-85036461D02*
X286404580Y-85160271D01*
X286404580Y-85160271D02*
X286404580Y-85345985D01*
X286404580Y-85345985D02*
X286342676Y-85469795D01*
X286342676Y-85469795D02*
X286280771Y-85531700D01*
X286280771Y-85531700D02*
X286156961Y-85593604D01*
X286156961Y-85593604D02*
X285661723Y-85593604D01*
X285661723Y-85593604D02*
X285661723Y-84293604D01*
X285661723Y-84293604D02*
X286095057Y-84293604D01*
X286095057Y-84293604D02*
X286218866Y-84355509D01*
X286218866Y-84355509D02*
X286280771Y-84417414D01*
X286280771Y-84417414D02*
X286342676Y-84541223D01*
X286342676Y-84541223D02*
X286342676Y-84665033D01*
X286342676Y-84665033D02*
X286280771Y-84788842D01*
X286280771Y-84788842D02*
X286218866Y-84850747D01*
X286218866Y-84850747D02*
X286095057Y-84912652D01*
X286095057Y-84912652D02*
X285661723Y-84912652D01*
X286404580Y-135469795D02*
X286342676Y-135531700D01*
X286342676Y-135531700D02*
X286156961Y-135593604D01*
X286156961Y-135593604D02*
X286033152Y-135593604D01*
X286033152Y-135593604D02*
X285847438Y-135531700D01*
X285847438Y-135531700D02*
X285723628Y-135407890D01*
X285723628Y-135407890D02*
X285661723Y-135284080D01*
X285661723Y-135284080D02*
X285599819Y-135036461D01*
X285599819Y-135036461D02*
X285599819Y-134850747D01*
X285599819Y-134850747D02*
X285661723Y-134603128D01*
X285661723Y-134603128D02*
X285723628Y-134479319D01*
X285723628Y-134479319D02*
X285847438Y-134355509D01*
X285847438Y-134355509D02*
X286033152Y-134293604D01*
X286033152Y-134293604D02*
X286156961Y-134293604D01*
X286156961Y-134293604D02*
X286342676Y-134355509D01*
X286342676Y-134355509D02*
X286404580Y-134417414D01*
X285661723Y-185593604D02*
X285661723Y-184293604D01*
X285661723Y-184293604D02*
X285971247Y-184293604D01*
X285971247Y-184293604D02*
X286156961Y-184355509D01*
X286156961Y-184355509D02*
X286280771Y-184479319D01*
X286280771Y-184479319D02*
X286342676Y-184603128D01*
X286342676Y-184603128D02*
X286404580Y-184850747D01*
X286404580Y-184850747D02*
X286404580Y-185036461D01*
X286404580Y-185036461D02*
X286342676Y-185284080D01*
X286342676Y-185284080D02*
X286280771Y-185407890D01*
X286280771Y-185407890D02*
X286156961Y-185531700D01*
X286156961Y-185531700D02*
X285971247Y-185593604D01*
X285971247Y-185593604D02*
X285661723Y-185593604D01*
X224457826Y-189793128D02*
X224457826Y-188293128D01*
X224457826Y-188293128D02*
X224814969Y-188293128D01*
X224814969Y-188293128D02*
X225029255Y-188364557D01*
X225029255Y-188364557D02*
X225172112Y-188507414D01*
X225172112Y-188507414D02*
X225243541Y-188650271D01*
X225243541Y-188650271D02*
X225314969Y-188935985D01*
X225314969Y-188935985D02*
X225314969Y-189150271D01*
X225314969Y-189150271D02*
X225243541Y-189435985D01*
X225243541Y-189435985D02*
X225172112Y-189578842D01*
X225172112Y-189578842D02*
X225029255Y-189721700D01*
X225029255Y-189721700D02*
X224814969Y-189793128D01*
X224814969Y-189793128D02*
X224457826Y-189793128D01*
X226600684Y-189793128D02*
X226600684Y-189007414D01*
X226600684Y-189007414D02*
X226529255Y-188864557D01*
X226529255Y-188864557D02*
X226386398Y-188793128D01*
X226386398Y-188793128D02*
X226100684Y-188793128D01*
X226100684Y-188793128D02*
X225957826Y-188864557D01*
X226600684Y-189721700D02*
X226457826Y-189793128D01*
X226457826Y-189793128D02*
X226100684Y-189793128D01*
X226100684Y-189793128D02*
X225957826Y-189721700D01*
X225957826Y-189721700D02*
X225886398Y-189578842D01*
X225886398Y-189578842D02*
X225886398Y-189435985D01*
X225886398Y-189435985D02*
X225957826Y-189293128D01*
X225957826Y-189293128D02*
X226100684Y-189221700D01*
X226100684Y-189221700D02*
X226457826Y-189221700D01*
X226457826Y-189221700D02*
X226600684Y-189150271D01*
X227100684Y-188793128D02*
X227672112Y-188793128D01*
X227314969Y-188293128D02*
X227314969Y-189578842D01*
X227314969Y-189578842D02*
X227386398Y-189721700D01*
X227386398Y-189721700D02*
X227529255Y-189793128D01*
X227529255Y-189793128D02*
X227672112Y-189793128D01*
X228743541Y-189721700D02*
X228600684Y-189793128D01*
X228600684Y-189793128D02*
X228314970Y-189793128D01*
X228314970Y-189793128D02*
X228172112Y-189721700D01*
X228172112Y-189721700D02*
X228100684Y-189578842D01*
X228100684Y-189578842D02*
X228100684Y-189007414D01*
X228100684Y-189007414D02*
X228172112Y-188864557D01*
X228172112Y-188864557D02*
X228314970Y-188793128D01*
X228314970Y-188793128D02*
X228600684Y-188793128D01*
X228600684Y-188793128D02*
X228743541Y-188864557D01*
X228743541Y-188864557D02*
X228814970Y-189007414D01*
X228814970Y-189007414D02*
X228814970Y-189150271D01*
X228814970Y-189150271D02*
X228100684Y-189293128D01*
X229457826Y-189650271D02*
X229529255Y-189721700D01*
X229529255Y-189721700D02*
X229457826Y-189793128D01*
X229457826Y-189793128D02*
X229386398Y-189721700D01*
X229386398Y-189721700D02*
X229457826Y-189650271D01*
X229457826Y-189650271D02*
X229457826Y-189793128D01*
X229457826Y-188864557D02*
X229529255Y-188935985D01*
X229529255Y-188935985D02*
X229457826Y-189007414D01*
X229457826Y-189007414D02*
X229386398Y-188935985D01*
X229386398Y-188935985D02*
X229457826Y-188864557D01*
X229457826Y-188864557D02*
X229457826Y-189007414D01*
X231243541Y-188435985D02*
X231314969Y-188364557D01*
X231314969Y-188364557D02*
X231457827Y-188293128D01*
X231457827Y-188293128D02*
X231814969Y-188293128D01*
X231814969Y-188293128D02*
X231957827Y-188364557D01*
X231957827Y-188364557D02*
X232029255Y-188435985D01*
X232029255Y-188435985D02*
X232100684Y-188578842D01*
X232100684Y-188578842D02*
X232100684Y-188721700D01*
X232100684Y-188721700D02*
X232029255Y-188935985D01*
X232029255Y-188935985D02*
X231172112Y-189793128D01*
X231172112Y-189793128D02*
X232100684Y-189793128D01*
X233029255Y-188293128D02*
X233172112Y-188293128D01*
X233172112Y-188293128D02*
X233314969Y-188364557D01*
X233314969Y-188364557D02*
X233386398Y-188435985D01*
X233386398Y-188435985D02*
X233457826Y-188578842D01*
X233457826Y-188578842D02*
X233529255Y-188864557D01*
X233529255Y-188864557D02*
X233529255Y-189221700D01*
X233529255Y-189221700D02*
X233457826Y-189507414D01*
X233457826Y-189507414D02*
X233386398Y-189650271D01*
X233386398Y-189650271D02*
X233314969Y-189721700D01*
X233314969Y-189721700D02*
X233172112Y-189793128D01*
X233172112Y-189793128D02*
X233029255Y-189793128D01*
X233029255Y-189793128D02*
X232886398Y-189721700D01*
X232886398Y-189721700D02*
X232814969Y-189650271D01*
X232814969Y-189650271D02*
X232743540Y-189507414D01*
X232743540Y-189507414D02*
X232672112Y-189221700D01*
X232672112Y-189221700D02*
X232672112Y-188864557D01*
X232672112Y-188864557D02*
X232743540Y-188578842D01*
X232743540Y-188578842D02*
X232814969Y-188435985D01*
X232814969Y-188435985D02*
X232886398Y-188364557D01*
X232886398Y-188364557D02*
X233029255Y-188293128D01*
X234100683Y-188435985D02*
X234172111Y-188364557D01*
X234172111Y-188364557D02*
X234314969Y-188293128D01*
X234314969Y-188293128D02*
X234672111Y-188293128D01*
X234672111Y-188293128D02*
X234814969Y-188364557D01*
X234814969Y-188364557D02*
X234886397Y-188435985D01*
X234886397Y-188435985D02*
X234957826Y-188578842D01*
X234957826Y-188578842D02*
X234957826Y-188721700D01*
X234957826Y-188721700D02*
X234886397Y-188935985D01*
X234886397Y-188935985D02*
X234029254Y-189793128D01*
X234029254Y-189793128D02*
X234957826Y-189793128D01*
X236243540Y-188293128D02*
X235957825Y-188293128D01*
X235957825Y-188293128D02*
X235814968Y-188364557D01*
X235814968Y-188364557D02*
X235743540Y-188435985D01*
X235743540Y-188435985D02*
X235600682Y-188650271D01*
X235600682Y-188650271D02*
X235529254Y-188935985D01*
X235529254Y-188935985D02*
X235529254Y-189507414D01*
X235529254Y-189507414D02*
X235600682Y-189650271D01*
X235600682Y-189650271D02*
X235672111Y-189721700D01*
X235672111Y-189721700D02*
X235814968Y-189793128D01*
X235814968Y-189793128D02*
X236100682Y-189793128D01*
X236100682Y-189793128D02*
X236243540Y-189721700D01*
X236243540Y-189721700D02*
X236314968Y-189650271D01*
X236314968Y-189650271D02*
X236386397Y-189507414D01*
X236386397Y-189507414D02*
X236386397Y-189150271D01*
X236386397Y-189150271D02*
X236314968Y-189007414D01*
X236314968Y-189007414D02*
X236243540Y-188935985D01*
X236243540Y-188935985D02*
X236100682Y-188864557D01*
X236100682Y-188864557D02*
X235814968Y-188864557D01*
X235814968Y-188864557D02*
X235672111Y-188935985D01*
X235672111Y-188935985D02*
X235600682Y-189007414D01*
X235600682Y-189007414D02*
X235529254Y-189150271D01*
X237029253Y-189221700D02*
X238172111Y-189221700D01*
X239172111Y-188293128D02*
X239314968Y-188293128D01*
X239314968Y-188293128D02*
X239457825Y-188364557D01*
X239457825Y-188364557D02*
X239529254Y-188435985D01*
X239529254Y-188435985D02*
X239600682Y-188578842D01*
X239600682Y-188578842D02*
X239672111Y-188864557D01*
X239672111Y-188864557D02*
X239672111Y-189221700D01*
X239672111Y-189221700D02*
X239600682Y-189507414D01*
X239600682Y-189507414D02*
X239529254Y-189650271D01*
X239529254Y-189650271D02*
X239457825Y-189721700D01*
X239457825Y-189721700D02*
X239314968Y-189793128D01*
X239314968Y-189793128D02*
X239172111Y-189793128D01*
X239172111Y-189793128D02*
X239029254Y-189721700D01*
X239029254Y-189721700D02*
X238957825Y-189650271D01*
X238957825Y-189650271D02*
X238886396Y-189507414D01*
X238886396Y-189507414D02*
X238814968Y-189221700D01*
X238814968Y-189221700D02*
X238814968Y-188864557D01*
X238814968Y-188864557D02*
X238886396Y-188578842D01*
X238886396Y-188578842D02*
X238957825Y-188435985D01*
X238957825Y-188435985D02*
X239029254Y-188364557D01*
X239029254Y-188364557D02*
X239172111Y-188293128D01*
X240172110Y-188293128D02*
X241172110Y-188293128D01*
X241172110Y-188293128D02*
X240529253Y-189793128D01*
X241743538Y-189221700D02*
X242886396Y-189221700D01*
X244386396Y-189793128D02*
X243529253Y-189793128D01*
X243957824Y-189793128D02*
X243957824Y-188293128D01*
X243957824Y-188293128D02*
X243814967Y-188507414D01*
X243814967Y-188507414D02*
X243672110Y-188650271D01*
X243672110Y-188650271D02*
X243529253Y-188721700D01*
X245672110Y-188293128D02*
X245386395Y-188293128D01*
X245386395Y-188293128D02*
X245243538Y-188364557D01*
X245243538Y-188364557D02*
X245172110Y-188435985D01*
X245172110Y-188435985D02*
X245029252Y-188650271D01*
X245029252Y-188650271D02*
X244957824Y-188935985D01*
X244957824Y-188935985D02*
X244957824Y-189507414D01*
X244957824Y-189507414D02*
X245029252Y-189650271D01*
X245029252Y-189650271D02*
X245100681Y-189721700D01*
X245100681Y-189721700D02*
X245243538Y-189793128D01*
X245243538Y-189793128D02*
X245529252Y-189793128D01*
X245529252Y-189793128D02*
X245672110Y-189721700D01*
X245672110Y-189721700D02*
X245743538Y-189650271D01*
X245743538Y-189650271D02*
X245814967Y-189507414D01*
X245814967Y-189507414D02*
X245814967Y-189150271D01*
X245814967Y-189150271D02*
X245743538Y-189007414D01*
X245743538Y-189007414D02*
X245672110Y-188935985D01*
X245672110Y-188935985D02*
X245529252Y-188864557D01*
X245529252Y-188864557D02*
X245243538Y-188864557D01*
X245243538Y-188864557D02*
X245100681Y-188935985D01*
X245100681Y-188935985D02*
X245029252Y-189007414D01*
X245029252Y-189007414D02*
X244957824Y-189150271D01*
D12*
X247413653Y-185785328D02*
X246913653Y-185071042D01*
X246556510Y-185785328D02*
X246556510Y-184285328D01*
X246556510Y-184285328D02*
X247127939Y-184285328D01*
X247127939Y-184285328D02*
X247270796Y-184356757D01*
X247270796Y-184356757D02*
X247342225Y-184428185D01*
X247342225Y-184428185D02*
X247413653Y-184571042D01*
X247413653Y-184571042D02*
X247413653Y-184785328D01*
X247413653Y-184785328D02*
X247342225Y-184928185D01*
X247342225Y-184928185D02*
X247270796Y-184999614D01*
X247270796Y-184999614D02*
X247127939Y-185071042D01*
X247127939Y-185071042D02*
X246556510Y-185071042D01*
X248627939Y-185713900D02*
X248485082Y-185785328D01*
X248485082Y-185785328D02*
X248199368Y-185785328D01*
X248199368Y-185785328D02*
X248056510Y-185713900D01*
X248056510Y-185713900D02*
X247985082Y-185571042D01*
X247985082Y-185571042D02*
X247985082Y-184999614D01*
X247985082Y-184999614D02*
X248056510Y-184856757D01*
X248056510Y-184856757D02*
X248199368Y-184785328D01*
X248199368Y-184785328D02*
X248485082Y-184785328D01*
X248485082Y-184785328D02*
X248627939Y-184856757D01*
X248627939Y-184856757D02*
X248699368Y-184999614D01*
X248699368Y-184999614D02*
X248699368Y-185142471D01*
X248699368Y-185142471D02*
X247985082Y-185285328D01*
X249199367Y-184785328D02*
X249556510Y-185785328D01*
X249556510Y-185785328D02*
X249913653Y-184785328D01*
X250485081Y-185642471D02*
X250556510Y-185713900D01*
X250556510Y-185713900D02*
X250485081Y-185785328D01*
X250485081Y-185785328D02*
X250413653Y-185713900D01*
X250413653Y-185713900D02*
X250485081Y-185642471D01*
X250485081Y-185642471D02*
X250485081Y-185785328D01*
X250485081Y-184856757D02*
X250556510Y-184928185D01*
X250556510Y-184928185D02*
X250485081Y-184999614D01*
X250485081Y-184999614D02*
X250413653Y-184928185D01*
X250413653Y-184928185D02*
X250485081Y-184856757D01*
X250485081Y-184856757D02*
X250485081Y-184999614D01*
X253127939Y-185785328D02*
X252270796Y-185785328D01*
X252699367Y-185785328D02*
X252699367Y-184285328D01*
X252699367Y-184285328D02*
X252556510Y-184499614D01*
X252556510Y-184499614D02*
X252413653Y-184642471D01*
X252413653Y-184642471D02*
X252270796Y-184713900D01*
X253770795Y-185642471D02*
X253842224Y-185713900D01*
X253842224Y-185713900D02*
X253770795Y-185785328D01*
X253770795Y-185785328D02*
X253699367Y-185713900D01*
X253699367Y-185713900D02*
X253770795Y-185642471D01*
X253770795Y-185642471D02*
X253770795Y-185785328D01*
X254770796Y-184285328D02*
X254913653Y-184285328D01*
X254913653Y-184285328D02*
X255056510Y-184356757D01*
X255056510Y-184356757D02*
X255127939Y-184428185D01*
X255127939Y-184428185D02*
X255199367Y-184571042D01*
X255199367Y-184571042D02*
X255270796Y-184856757D01*
X255270796Y-184856757D02*
X255270796Y-185213900D01*
X255270796Y-185213900D02*
X255199367Y-185499614D01*
X255199367Y-185499614D02*
X255127939Y-185642471D01*
X255127939Y-185642471D02*
X255056510Y-185713900D01*
X255056510Y-185713900D02*
X254913653Y-185785328D01*
X254913653Y-185785328D02*
X254770796Y-185785328D01*
X254770796Y-185785328D02*
X254627939Y-185713900D01*
X254627939Y-185713900D02*
X254556510Y-185642471D01*
X254556510Y-185642471D02*
X254485081Y-185499614D01*
X254485081Y-185499614D02*
X254413653Y-185213900D01*
X254413653Y-185213900D02*
X254413653Y-184856757D01*
X254413653Y-184856757D02*
X254485081Y-184571042D01*
X254485081Y-184571042D02*
X254556510Y-184428185D01*
X254556510Y-184428185D02*
X254627939Y-184356757D01*
X254627939Y-184356757D02*
X254770796Y-184285328D01*
D11*
X201386398Y-189721700D02*
X201600684Y-189793128D01*
X201600684Y-189793128D02*
X201957826Y-189793128D01*
X201957826Y-189793128D02*
X202100684Y-189721700D01*
X202100684Y-189721700D02*
X202172112Y-189650271D01*
X202172112Y-189650271D02*
X202243541Y-189507414D01*
X202243541Y-189507414D02*
X202243541Y-189364557D01*
X202243541Y-189364557D02*
X202172112Y-189221700D01*
X202172112Y-189221700D02*
X202100684Y-189150271D01*
X202100684Y-189150271D02*
X201957826Y-189078842D01*
X201957826Y-189078842D02*
X201672112Y-189007414D01*
X201672112Y-189007414D02*
X201529255Y-188935985D01*
X201529255Y-188935985D02*
X201457826Y-188864557D01*
X201457826Y-188864557D02*
X201386398Y-188721700D01*
X201386398Y-188721700D02*
X201386398Y-188578842D01*
X201386398Y-188578842D02*
X201457826Y-188435985D01*
X201457826Y-188435985D02*
X201529255Y-188364557D01*
X201529255Y-188364557D02*
X201672112Y-188293128D01*
X201672112Y-188293128D02*
X202029255Y-188293128D01*
X202029255Y-188293128D02*
X202243541Y-188364557D01*
X202886397Y-189793128D02*
X202886397Y-188793128D01*
X202886397Y-188293128D02*
X202814969Y-188364557D01*
X202814969Y-188364557D02*
X202886397Y-188435985D01*
X202886397Y-188435985D02*
X202957826Y-188364557D01*
X202957826Y-188364557D02*
X202886397Y-188293128D01*
X202886397Y-188293128D02*
X202886397Y-188435985D01*
X203457826Y-188793128D02*
X204243541Y-188793128D01*
X204243541Y-188793128D02*
X203457826Y-189793128D01*
X203457826Y-189793128D02*
X204243541Y-189793128D01*
X205386398Y-189721700D02*
X205243541Y-189793128D01*
X205243541Y-189793128D02*
X204957827Y-189793128D01*
X204957827Y-189793128D02*
X204814969Y-189721700D01*
X204814969Y-189721700D02*
X204743541Y-189578842D01*
X204743541Y-189578842D02*
X204743541Y-189007414D01*
X204743541Y-189007414D02*
X204814969Y-188864557D01*
X204814969Y-188864557D02*
X204957827Y-188793128D01*
X204957827Y-188793128D02*
X205243541Y-188793128D01*
X205243541Y-188793128D02*
X205386398Y-188864557D01*
X205386398Y-188864557D02*
X205457827Y-189007414D01*
X205457827Y-189007414D02*
X205457827Y-189150271D01*
X205457827Y-189150271D02*
X204743541Y-189293128D01*
X206100683Y-189650271D02*
X206172112Y-189721700D01*
X206172112Y-189721700D02*
X206100683Y-189793128D01*
X206100683Y-189793128D02*
X206029255Y-189721700D01*
X206029255Y-189721700D02*
X206100683Y-189650271D01*
X206100683Y-189650271D02*
X206100683Y-189793128D01*
X206100683Y-188864557D02*
X206172112Y-188935985D01*
X206172112Y-188935985D02*
X206100683Y-189007414D01*
X206100683Y-189007414D02*
X206029255Y-188935985D01*
X206029255Y-188935985D02*
X206100683Y-188864557D01*
X206100683Y-188864557D02*
X206100683Y-189007414D01*
X207886398Y-189364557D02*
X208600684Y-189364557D01*
X207743541Y-189793128D02*
X208243541Y-188293128D01*
X208243541Y-188293128D02*
X208743541Y-189793128D01*
X209886398Y-188793128D02*
X209886398Y-189793128D01*
X209529255Y-188221700D02*
X209172112Y-189293128D01*
X209172112Y-189293128D02*
X210100683Y-189293128D01*
D13*
X201729642Y-176711638D02*
X201979642Y-174711638D01*
X201979642Y-174711638D02*
X202741547Y-174711638D01*
X202741547Y-174711638D02*
X202920118Y-174806876D01*
X202920118Y-174806876D02*
X203003452Y-174902114D01*
X203003452Y-174902114D02*
X203074880Y-175092590D01*
X203074880Y-175092590D02*
X203039166Y-175378304D01*
X203039166Y-175378304D02*
X202920118Y-175568780D01*
X202920118Y-175568780D02*
X202812976Y-175664019D01*
X202812976Y-175664019D02*
X202610595Y-175759257D01*
X202610595Y-175759257D02*
X201848690Y-175759257D01*
X203729642Y-176711638D02*
X203896309Y-175378304D01*
X203848690Y-175759257D02*
X203967737Y-175568780D01*
X203967737Y-175568780D02*
X204074880Y-175473542D01*
X204074880Y-175473542D02*
X204277261Y-175378304D01*
X204277261Y-175378304D02*
X204467737Y-175378304D01*
X205253452Y-176711638D02*
X205074880Y-176616400D01*
X205074880Y-176616400D02*
X204991547Y-176521161D01*
X204991547Y-176521161D02*
X204920118Y-176330685D01*
X204920118Y-176330685D02*
X204991547Y-175759257D01*
X204991547Y-175759257D02*
X205110594Y-175568780D01*
X205110594Y-175568780D02*
X205217737Y-175473542D01*
X205217737Y-175473542D02*
X205420118Y-175378304D01*
X205420118Y-175378304D02*
X205705832Y-175378304D01*
X205705832Y-175378304D02*
X205884404Y-175473542D01*
X205884404Y-175473542D02*
X205967737Y-175568780D01*
X205967737Y-175568780D02*
X206039166Y-175759257D01*
X206039166Y-175759257D02*
X205967737Y-176330685D01*
X205967737Y-176330685D02*
X205848690Y-176521161D01*
X205848690Y-176521161D02*
X205741547Y-176616400D01*
X205741547Y-176616400D02*
X205539166Y-176711638D01*
X205539166Y-176711638D02*
X205253452Y-176711638D01*
X206943928Y-175378304D02*
X206729642Y-177092590D01*
X206729642Y-177092590D02*
X206610595Y-177283066D01*
X206610595Y-177283066D02*
X206408214Y-177378304D01*
X206408214Y-177378304D02*
X206312976Y-177378304D01*
X207027261Y-174711638D02*
X206920118Y-174806876D01*
X206920118Y-174806876D02*
X207003452Y-174902114D01*
X207003452Y-174902114D02*
X207110595Y-174806876D01*
X207110595Y-174806876D02*
X207027261Y-174711638D01*
X207027261Y-174711638D02*
X207003452Y-174902114D01*
X208503452Y-176616400D02*
X208301071Y-176711638D01*
X208301071Y-176711638D02*
X207920118Y-176711638D01*
X207920118Y-176711638D02*
X207741547Y-176616400D01*
X207741547Y-176616400D02*
X207670118Y-176425923D01*
X207670118Y-176425923D02*
X207765357Y-175664019D01*
X207765357Y-175664019D02*
X207884404Y-175473542D01*
X207884404Y-175473542D02*
X208086785Y-175378304D01*
X208086785Y-175378304D02*
X208467737Y-175378304D01*
X208467737Y-175378304D02*
X208646309Y-175473542D01*
X208646309Y-175473542D02*
X208717737Y-175664019D01*
X208717737Y-175664019D02*
X208693928Y-175854495D01*
X208693928Y-175854495D02*
X207717737Y-176044971D01*
X210312976Y-176616400D02*
X210110595Y-176711638D01*
X210110595Y-176711638D02*
X209729643Y-176711638D01*
X209729643Y-176711638D02*
X209551071Y-176616400D01*
X209551071Y-176616400D02*
X209467738Y-176521161D01*
X209467738Y-176521161D02*
X209396309Y-176330685D01*
X209396309Y-176330685D02*
X209467738Y-175759257D01*
X209467738Y-175759257D02*
X209586785Y-175568780D01*
X209586785Y-175568780D02*
X209693928Y-175473542D01*
X209693928Y-175473542D02*
X209896309Y-175378304D01*
X209896309Y-175378304D02*
X210277262Y-175378304D01*
X210277262Y-175378304D02*
X210455833Y-175473542D01*
X211039167Y-175378304D02*
X211801071Y-175378304D01*
X211408214Y-174711638D02*
X211193929Y-176425923D01*
X211193929Y-176425923D02*
X211265357Y-176616400D01*
X211265357Y-176616400D02*
X211443929Y-176711638D01*
X211443929Y-176711638D02*
X211634405Y-176711638D01*
X212324881Y-176521161D02*
X212408214Y-176616400D01*
X212408214Y-176616400D02*
X212301071Y-176711638D01*
X212301071Y-176711638D02*
X212217738Y-176616400D01*
X212217738Y-176616400D02*
X212324881Y-176521161D01*
X212324881Y-176521161D02*
X212301071Y-176711638D01*
X212455833Y-175473542D02*
X212539166Y-175568780D01*
X212539166Y-175568780D02*
X212432024Y-175664019D01*
X212432024Y-175664019D02*
X212348690Y-175568780D01*
X212348690Y-175568780D02*
X212455833Y-175473542D01*
X212455833Y-175473542D02*
X212432024Y-175664019D01*
X214693929Y-176616400D02*
X214967738Y-176711638D01*
X214967738Y-176711638D02*
X215443929Y-176711638D01*
X215443929Y-176711638D02*
X215646310Y-176616400D01*
X215646310Y-176616400D02*
X215753453Y-176521161D01*
X215753453Y-176521161D02*
X215872500Y-176330685D01*
X215872500Y-176330685D02*
X215896310Y-176140209D01*
X215896310Y-176140209D02*
X215824881Y-175949733D01*
X215824881Y-175949733D02*
X215741548Y-175854495D01*
X215741548Y-175854495D02*
X215562977Y-175759257D01*
X215562977Y-175759257D02*
X215193929Y-175664019D01*
X215193929Y-175664019D02*
X215015357Y-175568780D01*
X215015357Y-175568780D02*
X214932024Y-175473542D01*
X214932024Y-175473542D02*
X214860596Y-175283066D01*
X214860596Y-175283066D02*
X214884405Y-175092590D01*
X214884405Y-175092590D02*
X215003453Y-174902114D01*
X215003453Y-174902114D02*
X215110596Y-174806876D01*
X215110596Y-174806876D02*
X215312977Y-174711638D01*
X215312977Y-174711638D02*
X215789167Y-174711638D01*
X215789167Y-174711638D02*
X216062977Y-174806876D01*
X216646310Y-174711638D02*
X217789167Y-174711638D01*
X216967739Y-176711638D02*
X217217739Y-174711638D01*
X218182025Y-176140209D02*
X219134406Y-176140209D01*
X217920120Y-176711638D02*
X218836787Y-174711638D01*
X218836787Y-174711638D02*
X219253453Y-176711638D01*
X221062977Y-176711638D02*
X220515358Y-175759257D01*
X219920120Y-176711638D02*
X220170120Y-174711638D01*
X220170120Y-174711638D02*
X220932025Y-174711638D01*
X220932025Y-174711638D02*
X221110596Y-174806876D01*
X221110596Y-174806876D02*
X221193930Y-174902114D01*
X221193930Y-174902114D02*
X221265358Y-175092590D01*
X221265358Y-175092590D02*
X221229644Y-175378304D01*
X221229644Y-175378304D02*
X221110596Y-175568780D01*
X221110596Y-175568780D02*
X221003454Y-175664019D01*
X221003454Y-175664019D02*
X220801073Y-175759257D01*
X220801073Y-175759257D02*
X220039168Y-175759257D01*
X221920120Y-176711638D02*
X222170120Y-174711638D01*
X222170120Y-174711638D02*
X222646311Y-174711638D01*
X222646311Y-174711638D02*
X222920120Y-174806876D01*
X222920120Y-174806876D02*
X223086787Y-174997352D01*
X223086787Y-174997352D02*
X223158215Y-175187828D01*
X223158215Y-175187828D02*
X223205835Y-175568780D01*
X223205835Y-175568780D02*
X223170120Y-175854495D01*
X223170120Y-175854495D02*
X223027263Y-176235447D01*
X223027263Y-176235447D02*
X222908215Y-176425923D01*
X222908215Y-176425923D02*
X222693930Y-176616400D01*
X222693930Y-176616400D02*
X222396311Y-176711638D01*
X222396311Y-176711638D02*
X221920120Y-176711638D01*
X225062977Y-176711638D02*
X224515358Y-175759257D01*
X223920120Y-176711638D02*
X224170120Y-174711638D01*
X224170120Y-174711638D02*
X224932025Y-174711638D01*
X224932025Y-174711638D02*
X225110596Y-174806876D01*
X225110596Y-174806876D02*
X225193930Y-174902114D01*
X225193930Y-174902114D02*
X225265358Y-175092590D01*
X225265358Y-175092590D02*
X225229644Y-175378304D01*
X225229644Y-175378304D02*
X225110596Y-175568780D01*
X225110596Y-175568780D02*
X225003454Y-175664019D01*
X225003454Y-175664019D02*
X224801073Y-175759257D01*
X224801073Y-175759257D02*
X224039168Y-175759257D01*
X225920120Y-176711638D02*
X226170120Y-174711638D01*
X226836787Y-174711638D02*
X227253454Y-176711638D01*
X227253454Y-176711638D02*
X228170120Y-174711638D01*
X228717740Y-175664019D02*
X229384406Y-175664019D01*
X229539168Y-176711638D02*
X228586787Y-176711638D01*
X228586787Y-176711638D02*
X228836787Y-174711638D01*
X228836787Y-174711638D02*
X229789168Y-174711638D01*
X231836788Y-176616400D02*
X232110597Y-176711638D01*
X232110597Y-176711638D02*
X232586788Y-176711638D01*
X232586788Y-176711638D02*
X232789169Y-176616400D01*
X232789169Y-176616400D02*
X232896312Y-176521161D01*
X232896312Y-176521161D02*
X233015359Y-176330685D01*
X233015359Y-176330685D02*
X233039169Y-176140209D01*
X233039169Y-176140209D02*
X232967740Y-175949733D01*
X232967740Y-175949733D02*
X232884407Y-175854495D01*
X232884407Y-175854495D02*
X232705836Y-175759257D01*
X232705836Y-175759257D02*
X232336788Y-175664019D01*
X232336788Y-175664019D02*
X232158216Y-175568780D01*
X232158216Y-175568780D02*
X232074883Y-175473542D01*
X232074883Y-175473542D02*
X232003455Y-175283066D01*
X232003455Y-175283066D02*
X232027264Y-175092590D01*
X232027264Y-175092590D02*
X232146312Y-174902114D01*
X232146312Y-174902114D02*
X232253455Y-174806876D01*
X232253455Y-174806876D02*
X232455836Y-174711638D01*
X232455836Y-174711638D02*
X232932026Y-174711638D01*
X232932026Y-174711638D02*
X233205836Y-174806876D01*
X233824883Y-176711638D02*
X234074883Y-174711638D01*
X233955836Y-175664019D02*
X235098693Y-175664019D01*
X234967740Y-176711638D02*
X235217740Y-174711638D01*
X235920121Y-176711638D02*
X236170121Y-174711638D01*
X237003455Y-175664019D02*
X237670121Y-175664019D01*
X237824883Y-176711638D02*
X236872502Y-176711638D01*
X236872502Y-176711638D02*
X237122502Y-174711638D01*
X237122502Y-174711638D02*
X238074883Y-174711638D01*
X239634407Y-176711638D02*
X238682026Y-176711638D01*
X238682026Y-176711638D02*
X238932026Y-174711638D01*
X240301074Y-176711638D02*
X240551074Y-174711638D01*
X240551074Y-174711638D02*
X241027265Y-174711638D01*
X241027265Y-174711638D02*
X241301074Y-174806876D01*
X241301074Y-174806876D02*
X241467741Y-174997352D01*
X241467741Y-174997352D02*
X241539169Y-175187828D01*
X241539169Y-175187828D02*
X241586789Y-175568780D01*
X241586789Y-175568780D02*
X241551074Y-175854495D01*
X241551074Y-175854495D02*
X241408217Y-176235447D01*
X241408217Y-176235447D02*
X241289169Y-176425923D01*
X241289169Y-176425923D02*
X241074884Y-176616400D01*
X241074884Y-176616400D02*
X240777265Y-176711638D01*
X240777265Y-176711638D02*
X240301074Y-176711638D01*
X243789170Y-174711638D02*
X244205837Y-176711638D01*
X244205837Y-176711638D02*
X245122503Y-174711638D01*
X246586789Y-176711638D02*
X245443932Y-176711638D01*
X246015361Y-176711638D02*
X246265361Y-174711638D01*
X246265361Y-174711638D02*
X246039170Y-174997352D01*
X246039170Y-174997352D02*
X245824885Y-175187828D01*
X245824885Y-175187828D02*
X245622504Y-175283066D01*
D11*
X200000000Y-183000000D02*
X285000000Y-183000000D01*
D12*
X201556510Y-194685328D02*
X201556510Y-193185328D01*
X201556510Y-193185328D02*
X202056510Y-194256757D01*
X202056510Y-194256757D02*
X202556510Y-193185328D01*
X202556510Y-193185328D02*
X202556510Y-194685328D01*
X203913654Y-194685328D02*
X203913654Y-193899614D01*
X203913654Y-193899614D02*
X203842225Y-193756757D01*
X203842225Y-193756757D02*
X203699368Y-193685328D01*
X203699368Y-193685328D02*
X203413654Y-193685328D01*
X203413654Y-193685328D02*
X203270796Y-193756757D01*
X203913654Y-194613900D02*
X203770796Y-194685328D01*
X203770796Y-194685328D02*
X203413654Y-194685328D01*
X203413654Y-194685328D02*
X203270796Y-194613900D01*
X203270796Y-194613900D02*
X203199368Y-194471042D01*
X203199368Y-194471042D02*
X203199368Y-194328185D01*
X203199368Y-194328185D02*
X203270796Y-194185328D01*
X203270796Y-194185328D02*
X203413654Y-194113900D01*
X203413654Y-194113900D02*
X203770796Y-194113900D01*
X203770796Y-194113900D02*
X203913654Y-194042471D01*
X204627939Y-194685328D02*
X204627939Y-193685328D01*
X204627939Y-193971042D02*
X204699368Y-193828185D01*
X204699368Y-193828185D02*
X204770797Y-193756757D01*
X204770797Y-193756757D02*
X204913654Y-193685328D01*
X204913654Y-193685328D02*
X205056511Y-193685328D01*
X206199368Y-194613900D02*
X206056510Y-194685328D01*
X206056510Y-194685328D02*
X205770796Y-194685328D01*
X205770796Y-194685328D02*
X205627939Y-194613900D01*
X205627939Y-194613900D02*
X205556510Y-194542471D01*
X205556510Y-194542471D02*
X205485082Y-194399614D01*
X205485082Y-194399614D02*
X205485082Y-193971042D01*
X205485082Y-193971042D02*
X205556510Y-193828185D01*
X205556510Y-193828185D02*
X205627939Y-193756757D01*
X205627939Y-193756757D02*
X205770796Y-193685328D01*
X205770796Y-193685328D02*
X206056510Y-193685328D01*
X206056510Y-193685328D02*
X206199368Y-193756757D01*
X207056510Y-194685328D02*
X206913653Y-194613900D01*
X206913653Y-194613900D02*
X206842224Y-194542471D01*
X206842224Y-194542471D02*
X206770796Y-194399614D01*
X206770796Y-194399614D02*
X206770796Y-193971042D01*
X206770796Y-193971042D02*
X206842224Y-193828185D01*
X206842224Y-193828185D02*
X206913653Y-193756757D01*
X206913653Y-193756757D02*
X207056510Y-193685328D01*
X207056510Y-193685328D02*
X207270796Y-193685328D01*
X207270796Y-193685328D02*
X207413653Y-193756757D01*
X207413653Y-193756757D02*
X207485082Y-193828185D01*
X207485082Y-193828185D02*
X207556510Y-193971042D01*
X207556510Y-193971042D02*
X207556510Y-194399614D01*
X207556510Y-194399614D02*
X207485082Y-194542471D01*
X207485082Y-194542471D02*
X207413653Y-194613900D01*
X207413653Y-194613900D02*
X207270796Y-194685328D01*
X207270796Y-194685328D02*
X207056510Y-194685328D01*
X208270796Y-193185328D02*
X208127939Y-193471042D01*
X208842225Y-194613900D02*
X208985082Y-194685328D01*
X208985082Y-194685328D02*
X209270796Y-194685328D01*
X209270796Y-194685328D02*
X209413653Y-194613900D01*
X209413653Y-194613900D02*
X209485082Y-194471042D01*
X209485082Y-194471042D02*
X209485082Y-194399614D01*
X209485082Y-194399614D02*
X209413653Y-194256757D01*
X209413653Y-194256757D02*
X209270796Y-194185328D01*
X209270796Y-194185328D02*
X209056511Y-194185328D01*
X209056511Y-194185328D02*
X208913653Y-194113900D01*
X208913653Y-194113900D02*
X208842225Y-193971042D01*
X208842225Y-193971042D02*
X208842225Y-193899614D01*
X208842225Y-193899614D02*
X208913653Y-193756757D01*
X208913653Y-193756757D02*
X209056511Y-193685328D01*
X209056511Y-193685328D02*
X209270796Y-193685328D01*
X209270796Y-193685328D02*
X209413653Y-193756757D01*
X211985082Y-194685328D02*
X211270796Y-194685328D01*
X211270796Y-194685328D02*
X211270796Y-193185328D01*
X212413654Y-194256757D02*
X213127940Y-194256757D01*
X212270797Y-194685328D02*
X212770797Y-193185328D01*
X212770797Y-193185328D02*
X213270797Y-194685328D01*
X214270796Y-193899614D02*
X214485082Y-193971042D01*
X214485082Y-193971042D02*
X214556511Y-194042471D01*
X214556511Y-194042471D02*
X214627939Y-194185328D01*
X214627939Y-194185328D02*
X214627939Y-194399614D01*
X214627939Y-194399614D02*
X214556511Y-194542471D01*
X214556511Y-194542471D02*
X214485082Y-194613900D01*
X214485082Y-194613900D02*
X214342225Y-194685328D01*
X214342225Y-194685328D02*
X213770796Y-194685328D01*
X213770796Y-194685328D02*
X213770796Y-193185328D01*
X213770796Y-193185328D02*
X214270796Y-193185328D01*
X214270796Y-193185328D02*
X214413654Y-193256757D01*
X214413654Y-193256757D02*
X214485082Y-193328185D01*
X214485082Y-193328185D02*
X214556511Y-193471042D01*
X214556511Y-193471042D02*
X214556511Y-193613900D01*
X214556511Y-193613900D02*
X214485082Y-193756757D01*
X214485082Y-193756757D02*
X214413654Y-193828185D01*
X214413654Y-193828185D02*
X214270796Y-193899614D01*
X214270796Y-193899614D02*
X213770796Y-193899614D01*
D11*
X213457826Y-185693128D02*
X213457826Y-184193128D01*
X213457826Y-184193128D02*
X213957826Y-185264557D01*
X213957826Y-185264557D02*
X214457826Y-184193128D01*
X214457826Y-184193128D02*
X214457826Y-185693128D01*
X215814970Y-185693128D02*
X215814970Y-184907414D01*
X215814970Y-184907414D02*
X215743541Y-184764557D01*
X215743541Y-184764557D02*
X215600684Y-184693128D01*
X215600684Y-184693128D02*
X215314970Y-184693128D01*
X215314970Y-184693128D02*
X215172112Y-184764557D01*
X215814970Y-185621700D02*
X215672112Y-185693128D01*
X215672112Y-185693128D02*
X215314970Y-185693128D01*
X215314970Y-185693128D02*
X215172112Y-185621700D01*
X215172112Y-185621700D02*
X215100684Y-185478842D01*
X215100684Y-185478842D02*
X215100684Y-185335985D01*
X215100684Y-185335985D02*
X215172112Y-185193128D01*
X215172112Y-185193128D02*
X215314970Y-185121700D01*
X215314970Y-185121700D02*
X215672112Y-185121700D01*
X215672112Y-185121700D02*
X215814970Y-185050271D01*
X216529255Y-185693128D02*
X216529255Y-184693128D01*
X216529255Y-184978842D02*
X216600684Y-184835985D01*
X216600684Y-184835985D02*
X216672113Y-184764557D01*
X216672113Y-184764557D02*
X216814970Y-184693128D01*
X216814970Y-184693128D02*
X216957827Y-184693128D01*
X218100684Y-185621700D02*
X217957826Y-185693128D01*
X217957826Y-185693128D02*
X217672112Y-185693128D01*
X217672112Y-185693128D02*
X217529255Y-185621700D01*
X217529255Y-185621700D02*
X217457826Y-185550271D01*
X217457826Y-185550271D02*
X217386398Y-185407414D01*
X217386398Y-185407414D02*
X217386398Y-184978842D01*
X217386398Y-184978842D02*
X217457826Y-184835985D01*
X217457826Y-184835985D02*
X217529255Y-184764557D01*
X217529255Y-184764557D02*
X217672112Y-184693128D01*
X217672112Y-184693128D02*
X217957826Y-184693128D01*
X217957826Y-184693128D02*
X218100684Y-184764557D01*
X218957826Y-185693128D02*
X218814969Y-185621700D01*
X218814969Y-185621700D02*
X218743540Y-185550271D01*
X218743540Y-185550271D02*
X218672112Y-185407414D01*
X218672112Y-185407414D02*
X218672112Y-184978842D01*
X218672112Y-184978842D02*
X218743540Y-184835985D01*
X218743540Y-184835985D02*
X218814969Y-184764557D01*
X218814969Y-184764557D02*
X218957826Y-184693128D01*
X218957826Y-184693128D02*
X219172112Y-184693128D01*
X219172112Y-184693128D02*
X219314969Y-184764557D01*
X219314969Y-184764557D02*
X219386398Y-184835985D01*
X219386398Y-184835985D02*
X219457826Y-184978842D01*
X219457826Y-184978842D02*
X219457826Y-185407414D01*
X219457826Y-185407414D02*
X219386398Y-185550271D01*
X219386398Y-185550271D02*
X219314969Y-185621700D01*
X219314969Y-185621700D02*
X219172112Y-185693128D01*
X219172112Y-185693128D02*
X218957826Y-185693128D01*
X221243540Y-185693128D02*
X221243540Y-184193128D01*
X221243540Y-184193128D02*
X221743540Y-185264557D01*
X221743540Y-185264557D02*
X222243540Y-184193128D01*
X222243540Y-184193128D02*
X222243540Y-185693128D01*
X223600684Y-185693128D02*
X223600684Y-184907414D01*
X223600684Y-184907414D02*
X223529255Y-184764557D01*
X223529255Y-184764557D02*
X223386398Y-184693128D01*
X223386398Y-184693128D02*
X223100684Y-184693128D01*
X223100684Y-184693128D02*
X222957826Y-184764557D01*
X223600684Y-185621700D02*
X223457826Y-185693128D01*
X223457826Y-185693128D02*
X223100684Y-185693128D01*
X223100684Y-185693128D02*
X222957826Y-185621700D01*
X222957826Y-185621700D02*
X222886398Y-185478842D01*
X222886398Y-185478842D02*
X222886398Y-185335985D01*
X222886398Y-185335985D02*
X222957826Y-185193128D01*
X222957826Y-185193128D02*
X223100684Y-185121700D01*
X223100684Y-185121700D02*
X223457826Y-185121700D01*
X223457826Y-185121700D02*
X223600684Y-185050271D01*
X224243541Y-185621700D02*
X224386398Y-185693128D01*
X224386398Y-185693128D02*
X224672112Y-185693128D01*
X224672112Y-185693128D02*
X224814969Y-185621700D01*
X224814969Y-185621700D02*
X224886398Y-185478842D01*
X224886398Y-185478842D02*
X224886398Y-185407414D01*
X224886398Y-185407414D02*
X224814969Y-185264557D01*
X224814969Y-185264557D02*
X224672112Y-185193128D01*
X224672112Y-185193128D02*
X224457827Y-185193128D01*
X224457827Y-185193128D02*
X224314969Y-185121700D01*
X224314969Y-185121700D02*
X224243541Y-184978842D01*
X224243541Y-184978842D02*
X224243541Y-184907414D01*
X224243541Y-184907414D02*
X224314969Y-184764557D01*
X224314969Y-184764557D02*
X224457827Y-184693128D01*
X224457827Y-184693128D02*
X224672112Y-184693128D01*
X224672112Y-184693128D02*
X224814969Y-184764557D01*
X226172113Y-185621700D02*
X226029255Y-185693128D01*
X226029255Y-185693128D02*
X225743541Y-185693128D01*
X225743541Y-185693128D02*
X225600684Y-185621700D01*
X225600684Y-185621700D02*
X225529255Y-185550271D01*
X225529255Y-185550271D02*
X225457827Y-185407414D01*
X225457827Y-185407414D02*
X225457827Y-184978842D01*
X225457827Y-184978842D02*
X225529255Y-184835985D01*
X225529255Y-184835985D02*
X225600684Y-184764557D01*
X225600684Y-184764557D02*
X225743541Y-184693128D01*
X225743541Y-184693128D02*
X226029255Y-184693128D01*
X226029255Y-184693128D02*
X226172113Y-184764557D01*
X227029255Y-185693128D02*
X226886398Y-185621700D01*
X226886398Y-185621700D02*
X226814969Y-185550271D01*
X226814969Y-185550271D02*
X226743541Y-185407414D01*
X226743541Y-185407414D02*
X226743541Y-184978842D01*
X226743541Y-184978842D02*
X226814969Y-184835985D01*
X226814969Y-184835985D02*
X226886398Y-184764557D01*
X226886398Y-184764557D02*
X227029255Y-184693128D01*
X227029255Y-184693128D02*
X227243541Y-184693128D01*
X227243541Y-184693128D02*
X227386398Y-184764557D01*
X227386398Y-184764557D02*
X227457827Y-184835985D01*
X227457827Y-184835985D02*
X227529255Y-184978842D01*
X227529255Y-184978842D02*
X227529255Y-185407414D01*
X227529255Y-185407414D02*
X227457827Y-185550271D01*
X227457827Y-185550271D02*
X227386398Y-185621700D01*
X227386398Y-185621700D02*
X227243541Y-185693128D01*
X227243541Y-185693128D02*
X227029255Y-185693128D01*
X228386398Y-185693128D02*
X228243541Y-185621700D01*
X228243541Y-185621700D02*
X228172112Y-185478842D01*
X228172112Y-185478842D02*
X228172112Y-184193128D01*
X228957826Y-185693128D02*
X228957826Y-184693128D01*
X228957826Y-184193128D02*
X228886398Y-184264557D01*
X228886398Y-184264557D02*
X228957826Y-184335985D01*
X228957826Y-184335985D02*
X229029255Y-184264557D01*
X229029255Y-184264557D02*
X228957826Y-184193128D01*
X228957826Y-184193128D02*
X228957826Y-184335985D01*
X229672112Y-184693128D02*
X229672112Y-185693128D01*
X229672112Y-184835985D02*
X229743541Y-184764557D01*
X229743541Y-184764557D02*
X229886398Y-184693128D01*
X229886398Y-184693128D02*
X230100684Y-184693128D01*
X230100684Y-184693128D02*
X230243541Y-184764557D01*
X230243541Y-184764557D02*
X230314970Y-184907414D01*
X230314970Y-184907414D02*
X230314970Y-185693128D01*
X231029255Y-185693128D02*
X231029255Y-184693128D01*
X231029255Y-184193128D02*
X230957827Y-184264557D01*
X230957827Y-184264557D02*
X231029255Y-184335985D01*
X231029255Y-184335985D02*
X231100684Y-184264557D01*
X231100684Y-184264557D02*
X231029255Y-184193128D01*
X231029255Y-184193128D02*
X231029255Y-184335985D01*
D12*
X201554710Y-184892814D02*
X202054710Y-184892814D01*
X202268996Y-185678528D02*
X201554710Y-185678528D01*
X201554710Y-185678528D02*
X201554710Y-184178528D01*
X201554710Y-184178528D02*
X202268996Y-184178528D01*
X202911853Y-184678528D02*
X202911853Y-185678528D01*
X202911853Y-184821385D02*
X202983282Y-184749957D01*
X202983282Y-184749957D02*
X203126139Y-184678528D01*
X203126139Y-184678528D02*
X203340425Y-184678528D01*
X203340425Y-184678528D02*
X203483282Y-184749957D01*
X203483282Y-184749957D02*
X203554711Y-184892814D01*
X203554711Y-184892814D02*
X203554711Y-185678528D01*
X204911854Y-184678528D02*
X204911854Y-185892814D01*
X204911854Y-185892814D02*
X204840425Y-186035671D01*
X204840425Y-186035671D02*
X204768996Y-186107100D01*
X204768996Y-186107100D02*
X204626139Y-186178528D01*
X204626139Y-186178528D02*
X204411854Y-186178528D01*
X204411854Y-186178528D02*
X204268996Y-186107100D01*
X204911854Y-185607100D02*
X204768996Y-185678528D01*
X204768996Y-185678528D02*
X204483282Y-185678528D01*
X204483282Y-185678528D02*
X204340425Y-185607100D01*
X204340425Y-185607100D02*
X204268996Y-185535671D01*
X204268996Y-185535671D02*
X204197568Y-185392814D01*
X204197568Y-185392814D02*
X204197568Y-184964242D01*
X204197568Y-184964242D02*
X204268996Y-184821385D01*
X204268996Y-184821385D02*
X204340425Y-184749957D01*
X204340425Y-184749957D02*
X204483282Y-184678528D01*
X204483282Y-184678528D02*
X204768996Y-184678528D01*
X204768996Y-184678528D02*
X204911854Y-184749957D01*
X205626139Y-185678528D02*
X205626139Y-184678528D01*
X205626139Y-184178528D02*
X205554711Y-184249957D01*
X205554711Y-184249957D02*
X205626139Y-184321385D01*
X205626139Y-184321385D02*
X205697568Y-184249957D01*
X205697568Y-184249957D02*
X205626139Y-184178528D01*
X205626139Y-184178528D02*
X205626139Y-184321385D01*
X206340425Y-184678528D02*
X206340425Y-185678528D01*
X206340425Y-184821385D02*
X206411854Y-184749957D01*
X206411854Y-184749957D02*
X206554711Y-184678528D01*
X206554711Y-184678528D02*
X206768997Y-184678528D01*
X206768997Y-184678528D02*
X206911854Y-184749957D01*
X206911854Y-184749957D02*
X206983283Y-184892814D01*
X206983283Y-184892814D02*
X206983283Y-185678528D01*
X208268997Y-185607100D02*
X208126140Y-185678528D01*
X208126140Y-185678528D02*
X207840426Y-185678528D01*
X207840426Y-185678528D02*
X207697568Y-185607100D01*
X207697568Y-185607100D02*
X207626140Y-185464242D01*
X207626140Y-185464242D02*
X207626140Y-184892814D01*
X207626140Y-184892814D02*
X207697568Y-184749957D01*
X207697568Y-184749957D02*
X207840426Y-184678528D01*
X207840426Y-184678528D02*
X208126140Y-184678528D01*
X208126140Y-184678528D02*
X208268997Y-184749957D01*
X208268997Y-184749957D02*
X208340426Y-184892814D01*
X208340426Y-184892814D02*
X208340426Y-185035671D01*
X208340426Y-185035671D02*
X207626140Y-185178528D01*
X209554711Y-185607100D02*
X209411854Y-185678528D01*
X209411854Y-185678528D02*
X209126140Y-185678528D01*
X209126140Y-185678528D02*
X208983282Y-185607100D01*
X208983282Y-185607100D02*
X208911854Y-185464242D01*
X208911854Y-185464242D02*
X208911854Y-184892814D01*
X208911854Y-184892814D02*
X208983282Y-184749957D01*
X208983282Y-184749957D02*
X209126140Y-184678528D01*
X209126140Y-184678528D02*
X209411854Y-184678528D01*
X209411854Y-184678528D02*
X209554711Y-184749957D01*
X209554711Y-184749957D02*
X209626140Y-184892814D01*
X209626140Y-184892814D02*
X209626140Y-185035671D01*
X209626140Y-185035671D02*
X208911854Y-185178528D01*
X210268996Y-185678528D02*
X210268996Y-184678528D01*
X210268996Y-184964242D02*
X210340425Y-184821385D01*
X210340425Y-184821385D02*
X210411854Y-184749957D01*
X210411854Y-184749957D02*
X210554711Y-184678528D01*
X210554711Y-184678528D02*
X210697568Y-184678528D01*
X211197567Y-185535671D02*
X211268996Y-185607100D01*
X211268996Y-185607100D02*
X211197567Y-185678528D01*
X211197567Y-185678528D02*
X211126139Y-185607100D01*
X211126139Y-185607100D02*
X211197567Y-185535671D01*
X211197567Y-185535671D02*
X211197567Y-185678528D01*
X211197567Y-184749957D02*
X211268996Y-184821385D01*
X211268996Y-184821385D02*
X211197567Y-184892814D01*
X211197567Y-184892814D02*
X211126139Y-184821385D01*
X211126139Y-184821385D02*
X211197567Y-184749957D01*
X211197567Y-184749957D02*
X211197567Y-184892814D01*
D11*
X200000000Y-198000000D02*
X200000000Y-173000000D01*
X200000000Y-187000000D02*
X285000000Y-187000000D01*
X244000000Y-183000000D02*
X244000000Y-187000000D01*
X200000000Y-191000000D02*
X285000000Y-191000000D01*
X260000000Y-191000000D02*
X260000000Y-198000000D01*
X221000000Y-187000000D02*
X221000000Y-191000000D01*
X261455826Y-193478670D02*
X261455826Y-191978670D01*
X261455826Y-191978670D02*
X262027255Y-191978670D01*
X262027255Y-191978670D02*
X262170112Y-192050099D01*
X262170112Y-192050099D02*
X262241541Y-192121527D01*
X262241541Y-192121527D02*
X262312969Y-192264384D01*
X262312969Y-192264384D02*
X262312969Y-192478670D01*
X262312969Y-192478670D02*
X262241541Y-192621527D01*
X262241541Y-192621527D02*
X262170112Y-192692956D01*
X262170112Y-192692956D02*
X262027255Y-192764384D01*
X262027255Y-192764384D02*
X261455826Y-192764384D01*
X263598684Y-193478670D02*
X263598684Y-192692956D01*
X263598684Y-192692956D02*
X263527255Y-192550099D01*
X263527255Y-192550099D02*
X263384398Y-192478670D01*
X263384398Y-192478670D02*
X263098684Y-192478670D01*
X263098684Y-192478670D02*
X262955826Y-192550099D01*
X263598684Y-193407242D02*
X263455826Y-193478670D01*
X263455826Y-193478670D02*
X263098684Y-193478670D01*
X263098684Y-193478670D02*
X262955826Y-193407242D01*
X262955826Y-193407242D02*
X262884398Y-193264384D01*
X262884398Y-193264384D02*
X262884398Y-193121527D01*
X262884398Y-193121527D02*
X262955826Y-192978670D01*
X262955826Y-192978670D02*
X263098684Y-192907242D01*
X263098684Y-192907242D02*
X263455826Y-192907242D01*
X263455826Y-192907242D02*
X263598684Y-192835813D01*
X264955827Y-192478670D02*
X264955827Y-193692956D01*
X264955827Y-193692956D02*
X264884398Y-193835813D01*
X264884398Y-193835813D02*
X264812969Y-193907242D01*
X264812969Y-193907242D02*
X264670112Y-193978670D01*
X264670112Y-193978670D02*
X264455827Y-193978670D01*
X264455827Y-193978670D02*
X264312969Y-193907242D01*
X264955827Y-193407242D02*
X264812969Y-193478670D01*
X264812969Y-193478670D02*
X264527255Y-193478670D01*
X264527255Y-193478670D02*
X264384398Y-193407242D01*
X264384398Y-193407242D02*
X264312969Y-193335813D01*
X264312969Y-193335813D02*
X264241541Y-193192956D01*
X264241541Y-193192956D02*
X264241541Y-192764384D01*
X264241541Y-192764384D02*
X264312969Y-192621527D01*
X264312969Y-192621527D02*
X264384398Y-192550099D01*
X264384398Y-192550099D02*
X264527255Y-192478670D01*
X264527255Y-192478670D02*
X264812969Y-192478670D01*
X264812969Y-192478670D02*
X264955827Y-192550099D01*
X266241541Y-193407242D02*
X266098684Y-193478670D01*
X266098684Y-193478670D02*
X265812970Y-193478670D01*
X265812970Y-193478670D02*
X265670112Y-193407242D01*
X265670112Y-193407242D02*
X265598684Y-193264384D01*
X265598684Y-193264384D02*
X265598684Y-192692956D01*
X265598684Y-192692956D02*
X265670112Y-192550099D01*
X265670112Y-192550099D02*
X265812970Y-192478670D01*
X265812970Y-192478670D02*
X266098684Y-192478670D01*
X266098684Y-192478670D02*
X266241541Y-192550099D01*
X266241541Y-192550099D02*
X266312970Y-192692956D01*
X266312970Y-192692956D02*
X266312970Y-192835813D01*
X266312970Y-192835813D02*
X265598684Y-192978670D01*
X266955826Y-193335813D02*
X267027255Y-193407242D01*
X267027255Y-193407242D02*
X266955826Y-193478670D01*
X266955826Y-193478670D02*
X266884398Y-193407242D01*
X266884398Y-193407242D02*
X266955826Y-193335813D01*
X266955826Y-193335813D02*
X266955826Y-193478670D01*
X266955826Y-192550099D02*
X267027255Y-192621527D01*
X267027255Y-192621527D02*
X266955826Y-192692956D01*
X266955826Y-192692956D02*
X266884398Y-192621527D01*
X266884398Y-192621527D02*
X266955826Y-192550099D01*
X266955826Y-192550099D02*
X266955826Y-192692956D01*
X262170112Y-194393586D02*
X261455826Y-194393586D01*
X261455826Y-194393586D02*
X261384398Y-195107872D01*
X261384398Y-195107872D02*
X261455826Y-195036443D01*
X261455826Y-195036443D02*
X261598684Y-194965015D01*
X261598684Y-194965015D02*
X261955826Y-194965015D01*
X261955826Y-194965015D02*
X262098684Y-195036443D01*
X262098684Y-195036443D02*
X262170112Y-195107872D01*
X262170112Y-195107872D02*
X262241541Y-195250729D01*
X262241541Y-195250729D02*
X262241541Y-195607872D01*
X262241541Y-195607872D02*
X262170112Y-195750729D01*
X262170112Y-195750729D02*
X262098684Y-195822158D01*
X262098684Y-195822158D02*
X261955826Y-195893586D01*
X261955826Y-195893586D02*
X261598684Y-195893586D01*
X261598684Y-195893586D02*
X261455826Y-195822158D01*
X261455826Y-195822158D02*
X261384398Y-195750729D01*
X263955826Y-194322158D02*
X262670112Y-196250729D01*
X265241541Y-195893586D02*
X264384398Y-195893586D01*
X264812969Y-195893586D02*
X264812969Y-194393586D01*
X264812969Y-194393586D02*
X264670112Y-194607872D01*
X264670112Y-194607872D02*
X264527255Y-194750729D01*
X264527255Y-194750729D02*
X264384398Y-194822158D01*
X266598683Y-194393586D02*
X265884397Y-194393586D01*
X265884397Y-194393586D02*
X265812969Y-195107872D01*
X265812969Y-195107872D02*
X265884397Y-195036443D01*
X265884397Y-195036443D02*
X266027255Y-194965015D01*
X266027255Y-194965015D02*
X266384397Y-194965015D01*
X266384397Y-194965015D02*
X266527255Y-195036443D01*
X266527255Y-195036443D02*
X266598683Y-195107872D01*
X266598683Y-195107872D02*
X266670112Y-195250729D01*
X266670112Y-195250729D02*
X266670112Y-195607872D01*
X266670112Y-195607872D02*
X266598683Y-195750729D01*
X266598683Y-195750729D02*
X266527255Y-195822158D01*
X266527255Y-195822158D02*
X266384397Y-195893586D01*
X266384397Y-195893586D02*
X266027255Y-195893586D01*
X266027255Y-195893586D02*
X265884397Y-195822158D01*
X265884397Y-195822158D02*
X265812969Y-195750729D01*
X200000000Y-173000000D02*
X285000000Y-173000000D01*
X200000000Y-178500000D02*
X285000000Y-178500000D01*
X200000000Y-173000000D02*
X174500000Y-173000000D01*
X174500000Y-198000000D01*
X200000000Y-198000000D01*
X200000000Y-173000000D01*
X201956026Y-180400614D02*
X201456026Y-180400614D01*
X201456026Y-181186328D02*
X201456026Y-179686328D01*
X201456026Y-179686328D02*
X202170312Y-179686328D01*
X202741740Y-181043471D02*
X202813169Y-181114900D01*
X202813169Y-181114900D02*
X202741740Y-181186328D01*
X202741740Y-181186328D02*
X202670312Y-181114900D01*
X202670312Y-181114900D02*
X202741740Y-181043471D01*
X202741740Y-181043471D02*
X202741740Y-181186328D01*
X203384598Y-180757757D02*
X204098884Y-180757757D01*
X203241741Y-181186328D02*
X203741741Y-179686328D01*
X203741741Y-179686328D02*
X204241741Y-181186328D01*
X205384598Y-181186328D02*
X205384598Y-179686328D01*
X205384598Y-181114900D02*
X205241740Y-181186328D01*
X205241740Y-181186328D02*
X204956026Y-181186328D01*
X204956026Y-181186328D02*
X204813169Y-181114900D01*
X204813169Y-181114900D02*
X204741740Y-181043471D01*
X204741740Y-181043471D02*
X204670312Y-180900614D01*
X204670312Y-180900614D02*
X204670312Y-180472042D01*
X204670312Y-180472042D02*
X204741740Y-180329185D01*
X204741740Y-180329185D02*
X204813169Y-180257757D01*
X204813169Y-180257757D02*
X204956026Y-180186328D01*
X204956026Y-180186328D02*
X205241740Y-180186328D01*
X205241740Y-180186328D02*
X205384598Y-180257757D01*
X206098883Y-181186328D02*
X206098883Y-179686328D01*
X206741741Y-181186328D02*
X206741741Y-180400614D01*
X206741741Y-180400614D02*
X206670312Y-180257757D01*
X206670312Y-180257757D02*
X206527455Y-180186328D01*
X206527455Y-180186328D02*
X206313169Y-180186328D01*
X206313169Y-180186328D02*
X206170312Y-180257757D01*
X206170312Y-180257757D02*
X206098883Y-180329185D01*
X208027455Y-181114900D02*
X207884598Y-181186328D01*
X207884598Y-181186328D02*
X207598884Y-181186328D01*
X207598884Y-181186328D02*
X207456026Y-181114900D01*
X207456026Y-181114900D02*
X207384598Y-180972042D01*
X207384598Y-180972042D02*
X207384598Y-180400614D01*
X207384598Y-180400614D02*
X207456026Y-180257757D01*
X207456026Y-180257757D02*
X207598884Y-180186328D01*
X207598884Y-180186328D02*
X207884598Y-180186328D01*
X207884598Y-180186328D02*
X208027455Y-180257757D01*
X208027455Y-180257757D02*
X208098884Y-180400614D01*
X208098884Y-180400614D02*
X208098884Y-180543471D01*
X208098884Y-180543471D02*
X207384598Y-180686328D01*
X208670312Y-181114900D02*
X208813169Y-181186328D01*
X208813169Y-181186328D02*
X209098883Y-181186328D01*
X209098883Y-181186328D02*
X209241740Y-181114900D01*
X209241740Y-181114900D02*
X209313169Y-180972042D01*
X209313169Y-180972042D02*
X209313169Y-180900614D01*
X209313169Y-180900614D02*
X209241740Y-180757757D01*
X209241740Y-180757757D02*
X209098883Y-180686328D01*
X209098883Y-180686328D02*
X208884598Y-180686328D01*
X208884598Y-180686328D02*
X208741740Y-180614900D01*
X208741740Y-180614900D02*
X208670312Y-180472042D01*
X208670312Y-180472042D02*
X208670312Y-180400614D01*
X208670312Y-180400614D02*
X208741740Y-180257757D01*
X208741740Y-180257757D02*
X208884598Y-180186328D01*
X208884598Y-180186328D02*
X209098883Y-180186328D01*
X209098883Y-180186328D02*
X209241740Y-180257757D01*
X209956026Y-181186328D02*
X209956026Y-180186328D01*
X209956026Y-179686328D02*
X209884598Y-179757757D01*
X209884598Y-179757757D02*
X209956026Y-179829185D01*
X209956026Y-179829185D02*
X210027455Y-179757757D01*
X210027455Y-179757757D02*
X209956026Y-179686328D01*
X209956026Y-179686328D02*
X209956026Y-179829185D01*
X210527455Y-180186328D02*
X210884598Y-181186328D01*
X210884598Y-181186328D02*
X211241741Y-180186328D01*
X212384598Y-181114900D02*
X212241741Y-181186328D01*
X212241741Y-181186328D02*
X211956027Y-181186328D01*
X211956027Y-181186328D02*
X211813169Y-181114900D01*
X211813169Y-181114900D02*
X211741741Y-180972042D01*
X211741741Y-180972042D02*
X211741741Y-180400614D01*
X211741741Y-180400614D02*
X211813169Y-180257757D01*
X211813169Y-180257757D02*
X211956027Y-180186328D01*
X211956027Y-180186328D02*
X212241741Y-180186328D01*
X212241741Y-180186328D02*
X212384598Y-180257757D01*
X212384598Y-180257757D02*
X212456027Y-180400614D01*
X212456027Y-180400614D02*
X212456027Y-180543471D01*
X212456027Y-180543471D02*
X211741741Y-180686328D01*
D14*
X181600000Y-49000000D02*
G75*
G02*
X182600000Y-50000000I0J-1000000D01*
G01*
X85600000Y-50000000D02*
G75*
G02*
X86600000Y-49000000I1000000J0D01*
G01*
X85600000Y-144000000D02*
X85600000Y-50000000D01*
X90600000Y-149000000D02*
G75*
G02*
X85600000Y-144000000I0J5000000D01*
G01*
X86600000Y-49000000D02*
X119800000Y-48999995D01*
X119799945Y-48999995D02*
G75*
G02*
X120800005Y-49999995I55J-1000005D01*
G01*
X120799985Y-49999995D02*
X120800000Y-60239302D01*
X121860660Y-61300000D02*
G75*
G02*
X120800000Y-60239342I40J1060700D01*
G01*
X121860700Y-61300000D02*
X146860660Y-61300000D01*
X147900000Y-50000000D02*
G75*
G02*
X148899995Y-49000000I1000000J0D01*
G01*
X147900210Y-60293497D02*
G75*
G02*
X146860660Y-61300000I-1007067J40D01*
G01*
X147900210Y-60293497D02*
X147900000Y-50007107D01*
X148900000Y-49000000D02*
X181600000Y-49000000D01*
X177600000Y-149000000D02*
X90600000Y-149000000D01*
X182600000Y-50000000D02*
X182600000Y-144000000D01*
X182600000Y-144000000D02*
G75*
G02*
X177600000Y-149000000I-5000000J0D01*
G01*
M02*
